<svg xmlns="http://www.w3.org/2000/svg" viewBox="0 0 296.06 420.81"><defs><style>.cls-1{fill:#192123;}.cls-2{fill:#383c66;}.cls-3{fill:#92b9c8;}.cls-4{fill:#89adcb;}.cls-5{fill:#252a60;}.cls-6{fill:#73a3ca;}.cls-7{fill:#385d87;}.cls-8{fill:#ead3ac;}.cls-10,.cls-11,.cls-8,.cls-9{opacity:0.74;}.cls-9{fill:#eac6a4;}.cls-10{fill:#726036;}.cls-12{fill:#c85738;}</style></defs><g id="Mülltonne"><ellipse class="cls-1" cx="335.53" cy="523.06" rx="19.27" ry="55.59" transform="matrix(0.99, -0.13, 0.13, 0.99, -142.32, -117.97)"/><polygon class="cls-2" points="46.41 98.58 247.5 88.17 296.06 124.68 87.34 135.24 46.41 98.58"/><polygon class="cls-3" points="294.91 133.34 267.91 391.68 114.27 400.95 76.64 375.58 44.62 103.92 85.84 144.61 294.91 133.34"/><polygon class="cls-4" points="44.62 103.92 85.84 144.61 294.91 133.34 296.06 124.68 87.34 135.24 46.41 98.58 247.5 88.17 247.39 79.94 192.81 0 0 8.74 0.87 17.78 42.38 95.99 44.62 103.92"/><polygon class="cls-4" points="85.84 144.61 114.27 400.95 76.64 375.58 44.62 103.92 85.84 144.61"/><polygon class="cls-5" points="61.5 110.24 245.6 101.57 247.5 88.17 247.58 101.77 282.37 125.36 87.34 135.24 61.5 110.24"/><polygon class="cls-6" points="85.84 144.61 125.02 387.58 267.91 391.68 114.27 400.95 85.84 144.61"/><ellipse class="cls-1" cx="161.33" cy="530.73" rx="19.27" ry="55.59" transform="translate(-144.73 -140.16) rotate(-7.34)"/><polygon class="cls-2" points="46.79 91.44 4.32 11.53 191.59 3.58 243.86 80.07 46.79 91.44"/><polygon class="cls-5" points="4.32 11.53 62.4 47.93 239.96 78.69 46.79 91.44 4.32 11.53"/><polygon class="cls-7" points="0 8.74 45.08 93.82 45.23 99.25 87.11 136.97 87.47 144.31 85.84 144.61 44.54 107.33 42.38 95.99 0.87 17.78 0 8.74"/></g><g id="Apfel"><path class="cls-8" d="M251.07,370.21s7.71-9.29,16.3-7.89,13.68,3.86,16.84,4.38,12.45,2.46,17.88,3,11.75,3.51,15.09,7.19,4.55,9.47,4.2,11.58-1.75,1.4-1.75,1.4l-2.45,1.4L316,392.3l-.61.48-.47-.14-.55-.2-1,.47h-1.56l-.75.27-1.15,1.09-1,2.1-1,.13-.82,1.77-1,1.35-1.43.27-2.71,1.9-.74.88L300.6,404l-.68.27L298.16,406l-.75,1.7-.27,1.08-.95.54-.07.82-.74.27-.88,1.22L294,412.9l.41,1.56.07,3.26-.68,2.78-.54,2-1,.34-.14,2-1.35,1.43-.41,4.6,2,1.22.28,1.36.27,1.42-.48.68-.27.81.61,1.5s1.36,4.54,3.05,5.42l1,.13,2.71,2.85.68,1.22v2.44l.81.41,1.56-.28,2,1.29,1.09.07,1-.07s.33.41-.21,1.83-2.91,5.83-11.72,9.76-5.22,3.93-10.51,4.14-3.73.67-6.23.61-9.22-1.7-10.64-1.77a48.92,48.92,0,0,1-5-.81,6.48,6.48,0,0,0-2,0c-.68.2-3.8,1.36-4.61,1.15s-4.14-.06-8.27-4.74c0,0-3.19-1.42-3.66-2.51s-4.27-3.73-5.22-7.05c0,0-2.17-2.91-2-4.27s1.83-1.62,1.83-1.62l.13-2.65.21-2.1,1.56-.27,2.5-1s3.19-1.15,3.73-2.16,1.36-2.24,1.36-2.24l.88-1.29,1.08-2.3,2.1-.07,2.78-2.78.95-2.3.34-1.43-.95-.47.34-2s-1.83-.81-.47-4.2l.13-1.49,1.29-.34,4.81.2,2.71-.06-.27,2.1,1.83-.41.54-.41,1-1-.13-2.78.27-1.76,1.22-2.31,1.22-1.35-.61-2.92,1.22-.74,1.15-2.31-.54-.67v-.89l-.82-1,.14-1.43-.14-1.69.75-2-.07-2-2.44-4.27-.95-3.79-.74-.21-.68-3.59-.68-.4-.2-1.16-1.43-.27s-1.74-1.52-2.49-1.45a13.65,13.65,0,0,1-3.11-.82l-1.16-1.35-1.67-.31-.66-1.26-.9-.23-.34-1.36-1.59.21-.88-.27Z" transform="translate(-78.25 -165.11)"/><polygon class="cls-9" points="205.48 267.94 205.48 264.51 203.7 262.09 203.32 258.79 204.34 254.34 202.69 253.57 201.41 254.97 202.18 250.77 203.58 247.59 205.23 246.32 207.01 246.32 207.39 243.14 208.92 240.98 208.54 238.57 210.44 235.26 212.73 232.21 214.38 229.92 212.6 229.16 211.46 229.16 214.13 226.99 214.89 228.39 216.55 230.55 218.71 229.16 222.02 228.39 223.29 226.87 229.01 226.23 224.81 228.77 218.58 230.68 213.24 235.39 212.86 238.82 212.99 241.87 212.22 245.56 212.86 249.38 212.1 251.92 210.44 254.08 208.79 257.77 207.14 259.8 206.63 262.47 206.63 263.75 206.5 266.54 205.48 267.94"/><path class="cls-9" d="M268,376.89a25.6,25.6,0,0,1,.34-3.45l3.08,5.82,1.4,2.29,2.42,6.1v3.82L277,394.9l1.14,3.31-.76,3.31-1,2.16s-1.14.76-1.78.25-.16,1.84-.16,1.84l-1.28,2.05-.09,1-.6,1.88-.42,2,.59,1.54.35,2.22.25.94-.08,1.71.51,1.53-1.2.86-2.3.22-1.56-.48-1.49-.46.84-.26.72-.65.45.07.59-.46,1.43-.84-.59-2.93.26-2,.26-2.41.52-5.65.59-1,1.69-1.43,1.1-2.6v-4l-1-.91-.39-.78.32-1.17-1-1.1-1.82-3v-3.19l-1-1-1.69-2.86-.71-2.15.19-1.23Z" transform="translate(-78.25 -165.11)"/><polygon class="cls-9" points="219.6 230.44 220.97 228.72 222.02 228.39 222.35 227.23 226.71 226.54 228.09 226.66 231.87 226.66 234.05 224.71 233.36 226.77 229.81 229.07 227.28 228.95 224.81 228.77 222.47 230.67 219.71 231.82 216.96 233.31 214.44 234.8 213.52 236.29 215.93 232.39 219.6 230.44"/><polygon class="cls-9" points="214.67 244.09 214.55 242.14 214.67 240.54 215.47 239.28 215.81 237.56 217.07 236.52 219.14 236.52 221.43 236.29 222.93 235.6 220.17 237.56 218.34 237.56 217.76 239.74 216.85 240.88 215.93 242.95 214.67 244.09"/><path class="cls-10" d="M274.09,405.62s-5.86,3.19-5.47,5.38c0,0-.26,1.09,1.66.48,0,0-.22,4.37,2.8,4.59l.45-1.78-.11-5.34-.07-1.71Z" transform="translate(-78.25 -165.11)"/><polygon class="cls-9" points="168.87 285.49 172.96 280.33 174.68 275.59 177.48 271.72 180.27 269.78 181.47 268.71 185.48 267.91 188.15 266.44 190.16 264.31 191.09 260.57 193.23 259.37 196.3 255.76 196.97 250.15 197.23 254.43 197.1 257.1 195.5 259.63 192.43 263.64 191.89 269.52 185.75 272.05 182.54 275.26 181.34 277.8 181.34 279.4 177.74 281.4 176.27 284.34 176 286.61 177.74 291.95 172.26 292.35 168.25 288.61 168.87 285.49"/><path class="cls-9" d="M279.91,424.6a25.83,25.83,0,0,0-1.21-3.25l-1.5,6.42-.77,2.56-.79,6.52,1,3.69-.85,3.78-.26,3.48,1.57,3,1.54,1.83s1.3.45,1.78-.2.63,1.73.63,1.73l1.76,1.66.34,1,1.05,1.66.92,1.8-.19,1.64.23,2.23v1l2.16-2.31-.76-1.89-.86-2.26-1.94-5.34-.83-.85-2-1-1.72-2.23-1-3.84.71-1.13.18-.85-.61-1.05.73-1.33,1-3.36-.81-3.08.76-1.2.91-3.2.14-2.25-.5-1.15Z" transform="translate(-78.25 -165.11)"/><g class="cls-11"><path class="cls-12" d="M299.72,455c-6.72,1.46-13.43,4.82-16.64,4.09S276.51,455,272.57,455s-10.66-1-13.14.44-6.27,1.61-7.59.44-5.54-5-7.29-5c-1.53,0-5.73-.89-7.06-4.51a1.72,1.72,0,0,0-1,1.35c-.13,1.36,2,4.27,2,4.27.94,3.32,4.74,6,5.21,7s3.66,2.51,3.66,2.51c4.14,4.68,7.46,4.54,8.27,4.74s3.93-.94,4.61-1.15a6.48,6.48,0,0,1,2,0s3.6.75,5,.82,8.13,1.69,10.64,1.76.95-.41,6.24-.61,1.69-.21,10.5-4.14,11.18-8.33,11.73-9.76.2-1.83.2-1.83S306.43,453.49,299.72,455Z" transform="translate(-78.25 -165.11)"/><path class="cls-12" d="M317.08,376.92A26.19,26.19,0,0,0,302,369.73c-5.44-.53-14.73-2.46-17.89-3s-8.24-3-16.83-4.38S251,370.25,251,370.25l-.07.42c1.58.08,4.21,1.78,7.39,1.69,5-.15,10.61,1.18,13.68,3.37s20.45,5.95,28.77,6.54,20.6,7.64,20.6,7.64C321.69,387.8,321,381.08,317.08,376.92Z" transform="translate(-78.25 -165.11)"/></g><path class="cls-10" d="M284.66,372s4.93-13.53,5.28-14.91.57-7.23,2.75-8.26,5.85-.69,6.88,2.53c0,0,1.95.57,2.3,2,0,0-1.72,0-1.72.8a4.46,4.46,0,0,0-3.56,1.72c-1.37,1.83-5.39,4.36-8.14,17.32A23,23,0,0,0,284.66,372Z" transform="translate(-78.25 -165.11)"/></g></svg>