<svg id="Apfel" xmlns="http://www.w3.org/2000/svg" viewBox="0 0 429.16 602.68"><defs><style>.cls-1{fill:#ead3ac;}.cls-2{fill:#eac6a4;}.cls-3{fill:#726036;}.cls-4{fill:#c85738;}</style></defs><path class="cls-1" d="M153.81,206.32s38.95-46.93,82.34-39.85,69.06,19.48,85,22.14,62.86,12.4,90.31,15,59.32,17.71,76.15,36.3,23,47.82,21.25,58.44-8.86,7.08-8.86,7.08l-12.39,7.09-6,5.29-3.08,2.39-2.39-.68-2.74-1-5.13,2.4h-7.87l-3.77,1.37-5.82,5.47-5.13,10.61-5.13.69L436.4,348l-5.13,6.85-7.19,1.37-13.69,9.58-3.76,4.45-2.74,6.84-3.42,1.37-8.9,8.55-3.76,8.56L386.44,401l-4.79,2.74-.34,4.11-3.77,1.37-4.45,6.16-2.39,6.5,2.05,7.87.34,16.43-3.42,14-2.74,9.92-5.13,1.71-.69,10.27-6.84,7.18-2,23.27,10.26,6.16,1.37,6.85,1.37,7.18-2.39,3.43-1.37,4.1,3.08,7.53s6.84,22.93,15.4,27.38l5.13.68,13.69,14.38,3.42,6.16v12.31l4.11,2.06,7.87-1.37,9.92,6.5,5.48.34,5.13-.34s1.71,2.05-1,9.24-14.71,29.43-59.2,49.28-26.35,19.85-53,20.87-18.82,3.43-31.48,3.08-46.54-8.55-53.73-8.89-25.32-4.11-25.32-4.11-6.85-1-10.27,0-19.16,6.84-23.27,5.82-20.88-.35-41.75-24c0,0-16.08-7.18-18.48-12.66S95.56,635.77,90.77,619c0,0-11-14.71-10.27-21.56s9.24-8.21,9.24-8.21l.69-13.35,1-10.61,7.87-1.36L112,558.77s16.08-5.81,18.82-10.95,6.84-11.29,6.84-11.29l4.45-6.5,5.48-11.64,10.61-.34,14-14L177,492.38l1.71-7.18-4.79-2.4,1.71-9.92s-9.24-4.11-2.4-21.22l.69-7.53,6.5-1.71,24.3,1,13.68-.34-1.36,10.6,9.24-2,2.73-2.05,4.79-5.13-.68-14,1.37-8.89,6.16-11.64,6.16-6.84-3.08-14.72,6.16-3.76L255.72,373,253,369.53v-4.45L248.87,360l.69-7.19-.69-8.55,3.77-10.27-.35-10.26L240,302.12,235.18,283l-3.76-1L228,263.79l-3.43-2.05-1-5.82-7.19-1.37s-8.82-7.7-12.58-7.35S188,243.09,188,243.09l-5.82-6.84-8.47-1.57-3.3-6.36-4.57-1.17-1.72-6.84-8,1.05L151.68,220Z" transform="translate(-79.99 -95.95)"/><polygon class="cls-2" points="238.79 427.68 238.79 410.34 229.8 398.14 227.87 381.45 233.01 358.97 224.66 355.12 218.24 362.18 222.09 340.99 229.16 324.94 237.5 318.52 246.49 318.52 248.42 302.46 256.13 291.55 254.2 279.35 263.83 262.65 275.39 247.24 283.74 235.68 274.75 231.83 268.97 231.83 282.45 220.91 286.31 227.98 294.65 238.9 305.57 231.83 322.26 227.98 328.69 220.27 357.58 217.06 336.39 229.91 304.93 239.54 277.96 263.3 276.03 280.63 276.67 296.04 272.82 314.67 276.03 333.93 272.18 346.77 263.83 357.69 255.48 376.31 247.14 386.58 244.57 400.07 244.57 406.49 243.93 420.62 238.79 427.68"/><path class="cls-2" d="M239.21,240s.45-12.27,1.74-17.41L256.49,252l7.06,11.56,12.2,30.82v19.27l9,17.34,5.78,16.69-3.85,16.7-5.14,10.91s-5.78,3.86-9,1.29-.82,9.26-.82,9.26l-6.47,10.35-.43,5.18-3,9.49-2.16,9.93,3,7.76,1.72,11.22,1.3,4.75-.43,8.62,2.59,7.77-6,4.32-11.66,1.09-7.83-2.42-7.55-2.3L239,460.3l3.61-3.29,2.29.33,3-2.3,7.22-4.26-3-14.77,1.31-10.18,1.31-12.14,2.63-28.55,2.95-5.25,8.53-7.22,5.58-13.13v-20l-4.92-4.6-2-3.94,1.64-5.9L264,319.5l-9.19-15.1V288.32l-5.25-4.93L241,269l-3.61-10.83,1-6.23Z" transform="translate(-79.99 -95.95)"/><polygon class="cls-2" points="310.06 238.34 317.01 229.65 322.26 227.98 323.96 222.12 345.97 218.65 352.92 219.23 372.03 219.23 383.03 209.38 379.56 219.81 361.6 231.39 348.86 230.81 336.39 229.91 324.54 239.5 310.64 245.29 296.74 252.82 284 260.35 279.36 267.88 291.53 248.18 310.06 238.34"/><polygon class="cls-2" points="285.15 307.26 284.58 297.41 285.15 289.3 289.21 282.93 290.95 274.25 297.32 269.03 307.74 269.03 319.33 267.88 326.86 264.4 312.95 274.25 303.69 274.25 300.79 285.25 296.16 291.04 291.53 301.47 285.15 307.26"/><path class="cls-3" d="M270,385.1s-29.57,16.11-27.59,27.15c0,0-1.32,5.51,8.39,2.43,0,0-1.11,22.06,14.12,23.17l2.25-9-.56-26.94-.33-8.65Z" transform="translate(-79.99 -95.95)"/><polygon class="cls-2" points="53.92 516.28 74.56 490.2 83.25 466.3 97.38 446.75 111.5 436.97 117.57 431.58 137.79 427.53 151.28 420.11 161.4 409.32 166.11 390.45 176.9 384.38 192.41 366.17 195.78 337.85 197.13 359.43 196.46 372.91 188.37 385.73 172.86 405.95 170.16 435.62 139.14 448.43 122.96 464.62 116.89 477.43 116.89 485.52 98.69 495.63 91.27 510.47 89.92 521.93 98.69 548.9 71.04 550.92 50.81 532.04 53.92 516.28"/><path class="cls-2" d="M299.43,481s-3.56-11.76-6.11-16.4l-7.57,32.38-3.9,13-4,32.91,4.89,18.63-4.3,19-1.35,17.62,8,15.17,7.74,9.25s6.57,2.26,9-1,3.15,8.75,3.15,8.75l8.89,8.38,1.73,4.89,5.33,8.42,4.6,9.05-.95,8.28,1.18,11.29-.05,4.92,10.92-11.67-3.85-9.51-4.35-11.41-9.79-27-4.19-4.33-10.08-4.82-8.73-11.28-5.08-19.36,3.59-5.7.91-4.31L292,570.83l3.67-6.73,5.05-16.94-4.08-15.55,3.83-6.1L305,509.38l.75-11.39-2.54-5.79Z" transform="translate(-79.99 -95.95)"/><path class="cls-4" d="M399.45,634.2c-33.9,7.37-67.8,24.32-84,20.64s-33.16-20.64-53.06-20.64-53.8-5.16-66.33,2.21-31.68,8.11-38.32,2.22-28-25.06-36.85-25.06c-7.71,0-28.89-4.49-35.63-22.77C82.92,592,80.38,594,80,597.65c-.69,6.84,10.26,21.56,10.26,21.56,4.79,16.77,24,30.11,26.35,35.59s18.48,12.66,18.48,12.66c20.88,23.61,37.65,22.93,41.75,23.95s19.85-4.79,23.27-5.81,10.27,0,10.27,0,18.14,3.76,25.32,4.1,41.07,8.56,53.73,8.9,4.79-2.05,31.48-3.08,8.56-1,53-20.87,56.47-42.1,59.21-49.28,1-9.24,1-9.24S433.35,626.83,399.45,634.2Z" transform="translate(-79.99 -95.95)"/><path class="cls-4" d="M487.12,240.17c-17.28-18.17-48.7-33.64-76.15-36.3s-74.37-12.4-90.31-15.05-41.61-15-85-22.14-82.34,39.85-82.34,39.85l-.33,2.11c7.94.38,21.23,9,37.27,8.52,25.06-.73,53.61,6,69.08,17s103.27,30.07,145.27,33,104,38.56,104,38.56C510.39,295.14,507.12,261.21,487.12,240.17Z" transform="translate(-79.99 -95.95)"/><path class="cls-3" d="M323.44,215.57s24.91-68.34,26.64-75.29,2.9-36.49,13.9-41.7,29.54-3.48,34.75,12.74c0,0,9.85,2.89,11.59,9.84,0,0-8.69,0-8.69,4.06,0,0-11-.58-18,8.68s-27.22,22-41.12,87.46A113,113,0,0,0,323.44,215.57Z" transform="translate(-79.99 -95.95)"/></svg>