<svg id="Papier" xmlns="http://www.w3.org/2000/svg" viewBox="0 0 436.3 387.49"><defs><style>.cls-1{fill:#a2a19b;}.cls-2{fill:#eceaef;}.cls-3{fill:#d9d9d9;}.cls-4{fill:#c4c5c6;}.cls-5{fill:#fff;}</style></defs><polygon class="cls-1" points="55.42 297.81 72.96 350.42 81.98 356.93 95.51 354.43 142.61 374.47 142.61 350.42 95 304.82 55.42 297.81"/><polygon class="cls-2" points="0 263.78 10.24 280.32 59.06 308.67 107.11 336.23 140.18 377.97 166.96 386.64 172.47 378.76 183.5 382.7 185.86 375.61 231.54 385.06 251.22 376.4 269.34 377.19 310.29 347.26 323.68 346.47 351.24 310.24 361.48 304.73 363.06 286.62 394.56 274.81 436.3 248.03 433.15 234.64 414.25 225.98 400.07 196.84 382.88 203.52 384.8 179.18 379.07 178.7 380.98 168.68 376.68 164.38 377.63 154.35 346.61 116.64 346.13 108.53 332.29 106.62 325.81 92.65 332.79 89.86 329.72 81.77 340.32 72.84 336.42 46.33 310.46 12 273.63 2.51 184.88 0 182.93 2.23 172.6 5.3 155.02 3.35 154.18 18.98 107.3 36 106.74 49.95 100.32 50.23 68.51 89.02 67.67 95.72 34.46 138.7 26.37 167.16 16.88 174.42 25.53 190.88 29.16 214.05 14.37 236.93 19.39 247.53 9.07 260.93 2.93 257.02 0 263.78"/><polygon class="cls-3" points="33.07 224.04 31.32 196.86 79.97 144.11 137.98 97.78 191.6 162.21 152.07 330.61 59.75 283.2 33.07 224.04"/><polygon class="cls-3" points="192.83 151.92 173.45 114.55 194.09 93.98 212.51 57.1 275.39 51.02 295.45 27.38 309.76 27.38 340.32 72.84 329.72 81.77 330.88 89.95 304.15 106.97 313.71 161.76 298.31 162.49 279.61 183.76 246.97 169.46 232.04 179.56 215.5 177.11 192.83 151.92"/><polygon class="cls-4" points="212.51 57.1 227.56 60.04 247.01 56.74 277.83 55.64 295.45 27.38 309.76 27.38 312.69 31.78 312.69 50.87 327.74 78.02 298.02 32.88 309.39 74.35 302.05 70.68 248.84 73.25 210.31 65.54 230.13 64.81 212.51 57.1"/><polygon class="cls-4" points="325.84 92.47 324.58 88.19 316.52 88.19 314.5 77.35 310.48 78.61 309.97 61.48 330.88 89.95 325.84 92.47"/><polygon class="cls-4" points="191.82 99.52 194.09 93.98 203.16 93.73 234.15 75.59 245.23 75.09 264.37 89.7 231.63 93.98 196.61 97.26 195.6 100.03 191.82 99.52"/><polygon class="cls-4" points="215.5 177.11 192.83 151.92 196.86 144.11 212.98 132.27 231.37 132.27 246.24 144.62 232.13 142.1 219.03 152.17 215.5 177.11"/><polygon class="cls-4" points="42.94 149.65 73.42 109.6 104.66 125.22 79.97 144.11 56.29 146.13 46.72 150.66 42.94 149.65"/><polygon class="cls-4" points="79.72 105.57 98.11 71.81 118.52 55.69 125.82 43.09 139.43 36.8 127.84 46.12 120.28 71.06 102.39 74.33 95.84 90.45 79.72 105.57"/><polygon class="cls-4" points="108.44 87.94 136.4 50.9 132.12 66.02 118.01 83.9 108.44 87.94"/><polygon class="cls-4" points="130.61 99.78 138.42 88.44 144.21 50.65 152.02 38.56 147.23 53.17 142.2 92.47 130.61 99.78"/><polygon class="cls-4" points="22.77 223.08 54.13 230.29 142.1 312.5 148.23 298.07 155.44 247.24 167.34 244 166.62 209.38 178.88 199.65 180.68 162.51 186.81 151.34 145.35 97.98 221.06 187.75 259.63 189.91 273.33 198.57 288.48 188.83 300.38 168.64 337.87 172.61 353.37 180.18 383.66 180.18 382.21 202.9 399.88 196.77 413.94 226.33 433.05 234.98 436.3 247.6 394.47 274.64 363.47 286.18 361.31 304.93 350.49 310.33 323.45 347.11 310.47 347.47 269.37 377.75 250.62 376.67 230.79 385.68 185.72 375.95 183.2 383.16 173.11 378.47 167.34 387.49 139.58 372.35 120.11 347.11 126.96 343.14 13.03 278.61 8.34 261.66 21.68 247.96 14.11 236.78 22.77 223.08"/><polygon class="cls-4" points="218.73 177.89 224.96 168.72 232.66 166.89 227.9 164.32 229.73 153.69 235.97 145.25 256.5 144.52 277.77 165.42 290.97 169.82 279.61 183.76 246.97 169.46 227.53 177.89 218.73 177.89"/><polygon class="cls-4" points="313.71 161.76 285.11 141.59 271.9 121.78 271.17 94.28 282.54 87.68 324.58 88.19 332.41 106.75 345.62 108.21 345.98 116.28 376.79 154.42 376.05 163.96 380.82 169.82 378.25 177.53 352.95 177.16 334.25 164.32 313.71 161.76"/><polygon class="cls-4" points="270.07 136.45 308.21 161.02 298.31 162.49 292.07 167.26 278.87 158.82 286.94 155.16 270.07 136.45"/><polygon class="cls-2" points="135.82 292.72 139.79 276.54 137.05 257.32 138.88 249.99 150.78 242.67 103.78 169.12 152.92 241.14 156.58 239.92 162.38 209.1 175.19 192.62 163.71 209.64 158.86 242.62 140.82 251.78 139.47 259.31 140.82 277.22 135.82 292.72"/><polygon class="cls-5" points="188.72 144.86 160.09 108.24 172.75 109.99 164.18 82.72 156.98 19.23 160.29 83.7 168.27 105.9 144.9 94.41 188.72 144.86"/><polygon class="cls-3" points="228.27 192.13 252.57 222.35 260.27 209.31 291.09 190.06 264.12 212.57 256.42 225.02 265.31 236.57 252.27 226.79 228.27 192.13"/><polygon class="cls-3" points="356.86 262.94 368.71 258.2 375.53 233.02 380.86 228.28 382.64 206.35 397.16 199.83 384.12 208.72 384.12 230.65 378.49 235.68 371.38 266.2 356.86 262.94"/><polygon class="cls-1" points="179.09 375.24 183.83 352.13 230.64 378.79 252.57 373.76 272.42 348.87 325.75 332.87 316.57 340.57 323.45 347.11 310.47 347.47 269.37 377.75 250.62 376.67 230.79 385.68 185.72 375.95 183.2 383.16 173.11 378.47 167.34 387.49 155.09 382.94 166.35 382.94 172.87 375.24 161.9 360.72 173.46 369.9 179.09 375.24"/><polygon class="cls-1" points="304.12 286.05 290.79 264.72 269.16 239.83 282.2 248.13 294.94 232.13 323.68 209.02 308.27 230.05 294.64 252.28 294.64 262.05 304.12 286.05"/><polygon class="cls-1" points="263.23 225.61 274.79 209.91 305.6 185.31 329.6 212.87 323.97 220.57 326.05 233.02 320.42 219.98 327.23 212.87 315.97 201.91 296.71 206.94 281.6 213.76 263.23 225.61"/><polygon class="cls-1" points="332.57 254.05 357.45 247.24 372.86 223.83 379.38 220.87 380.86 228.28 375.53 233.02 368.71 258.2 356.86 262.94 371.38 266.2 378.49 235.68 384.12 230.65 398.94 250.2 381.16 251.39 399.23 253.46 395.38 260.87 405.16 259.98 419.97 251.09 401.31 264.42 369.01 276.57 336.12 267.68 332.57 254.05"/><polygon class="cls-1" points="307.97 292.57 324.57 326.35 341.45 308.87 352.71 305.02 338.79 306.79 322.49 312.72 307.97 292.57"/><polygon class="cls-1" points="61.36 236.83 134.79 332.08 150.81 316.94 164.17 311.6 181.08 312.49 174.85 308.49 158.38 308.49 142.1 312.5 61.36 236.83"/><polygon class="cls-1" points="117.67 349.78 126.96 343.14 145.33 341.45 163.14 314.17 145.33 348.65 141.92 370.62 117.67 349.78"/><polygon class="cls-1" points="158.97 251.26 223.39 304.31 227.18 322.12 234 322.12 244.61 336.52 264.69 317.2 246.12 329.7 234.76 317.57 228.69 316.82 227.18 300.14 257.11 277.79 224.53 297.49 205.96 284.61 232.1 269.07 219.22 266.42 201.79 272.86 191.94 275.51 184.36 269.07 208.99 247.85 190.04 256.19 176.78 258.46 172.98 259.15 158.97 251.26"/><polygon class="cls-1" points="154.17 300.09 164.85 294.75 187.73 296.27 206.8 301.61 213.92 301.36 206.29 305.68 190.53 302.38 175.02 298.82 163.32 299.07 154.17 300.09"/></svg>