<svg xmlns="http://www.w3.org/2000/svg" viewBox="0 0 296.06 420.81"><defs><style>.cls-1{fill:#192123;}.cls-2{fill:#383c66;}.cls-3{fill:#92b9c8;}.cls-4{fill:#89adcb;}.cls-5{fill:#252a60;}.cls-6{fill:#73a3ca;}.cls-7{fill:#385d87;}.cls-8{fill:#a2a19b;}.cls-10,.cls-11,.cls-12,.cls-8,.cls-9{opacity:0.56;}.cls-9{fill:#eceaef;}.cls-10{fill:#d9d9d9;}.cls-11{fill:#c4c5c6;}.cls-12{fill:#fff;}</style></defs><g id="Mülltonne"><ellipse class="cls-1" cx="335.53" cy="523.06" rx="19.27" ry="55.59" transform="matrix(0.99, -0.13, 0.13, 0.99, -142.32, -117.97)"/><polygon class="cls-2" points="46.41 98.58 247.5 88.17 296.06 124.68 87.34 135.24 46.41 98.58"/><polygon class="cls-3" points="294.91 133.34 267.91 391.68 114.27 400.95 76.64 375.58 44.62 103.92 85.84 144.61 294.91 133.34"/><polygon class="cls-4" points="44.62 103.92 85.84 144.61 294.91 133.34 296.06 124.68 87.34 135.24 46.41 98.58 247.5 88.17 247.39 79.94 192.81 0 0 8.74 0.87 17.78 42.38 95.99 44.62 103.92"/><polygon class="cls-4" points="85.84 144.61 114.27 400.95 76.64 375.58 44.62 103.92 85.84 144.61"/><polygon class="cls-5" points="61.5 110.24 245.6 101.57 247.5 88.17 247.58 101.77 282.37 125.36 87.34 135.24 61.5 110.24"/><polygon class="cls-6" points="85.84 144.61 125.02 387.58 267.91 391.68 114.27 400.95 85.84 144.61"/><ellipse class="cls-1" cx="161.33" cy="530.73" rx="19.27" ry="55.59" transform="translate(-144.73 -140.16) rotate(-7.34)"/><polygon class="cls-2" points="46.79 91.44 4.32 11.53 191.59 3.58 243.86 80.07 46.79 91.44"/><polygon class="cls-5" points="4.32 11.53 62.4 47.93 239.96 78.69 46.79 91.44 4.32 11.53"/><polygon class="cls-7" points="0 8.74 45.08 93.82 45.23 99.25 87.11 136.97 87.47 144.31 85.84 144.61 44.54 107.33 42.38 95.99 0.87 17.78 0 8.74"/></g><g id="Papier"><polygon class="cls-8" points="157.55 282.56 163.5 296.37 166.08 297.93 169.68 296.94 182.86 301.27 182.31 294.78 168.41 283.55 157.55 282.56"/><polygon class="cls-9" points="141.8 274.64 144.95 278.88 158.79 285.42 172.39 291.76 182.28 302.27 189.71 304 191.02 301.75 194.09 302.56 194.57 300.59 207.12 302.1 212.24 299.31 217.15 299.1 227.52 290.08 231.12 289.56 237.74 279.15 240.38 277.42 240.39 272.49 248.62 268.58 259.28 260.39 258.13 256.85 252.82 254.94 248.33 247.4 243.84 249.6 243.8 242.98 242.24 242.98 242.52 240.23 241.27 239.17 241.29 236.44 232.05 226.96 231.74 224.78 227.95 224.58 225.88 220.96 227.7 220.04 226.69 217.93 229.35 215.27 227.69 208.2 219.89 199.53 209.72 197.81 185.7 199.16 185.22 199.81 182.5 200.88 177.71 200.75 177.84 204.99 165.57 210.66 165.74 214.44 164.01 214.67 156.3 225.87 156.23 227.7 148.25 240.07 146.71 247.94 144.32 250.12 147.03 254.37 148.54 260.54 145.07 267.06 146.67 269.81 144.19 273.67 142.44 272.75 141.8 274.64"/><polygon class="cls-10" points="149.83 263.15 148.73 255.85 160.66 240.49 175.27 226.65 191.23 242.82 184.41 289.21 158.39 278.52 149.83 263.15"/><polygon class="cls-10" points="191.32 240.01 185.23 230.36 190.34 224.34 194.47 213.95 211.31 210.87 216.19 204.02 220.05 203.7 229.35 215.27 226.69 217.93 227.19 220.11 220.36 225.32 224.2 239.9 220.06 240.45 215.49 246.62 206.35 243.51 202.55 246.58 198.02 246.3 191.32 240.01"/><polygon class="cls-11" points="194.47 213.95 198.6 214.4 203.78 213.06 212.08 212.06 216.19 204.02 220.05 203.7 220.95 204.82 221.38 209.97 226.07 216.96 217.01 205.45 221.03 216.39 218.96 215.57 204.65 217.48 194.07 216.28 199.4 215.63 194.47 213.95"/><polygon class="cls-11" points="225.89 220.91 225.45 219.78 223.27 219.97 222.48 217.09 221.42 217.52 220.89 212.9 227.19 220.11 225.89 220.91"/><polygon class="cls-11" points="189.85 225.88 190.34 224.34 192.78 224.06 200.73 218.45 203.72 218.06 209.22 221.57 200.47 223.47 191.09 225.16 190.88 225.93 189.85 225.88"/><polygon class="cls-11" points="198.02 246.3 191.32 240.01 192.23 237.81 196.32 234.24 201.28 233.82 205.58 236.82 201.71 236.46 198.41 239.48 198.02 246.3"/><polygon class="cls-11" points="150.79 242.84 158.1 231.32 166.9 234.82 160.66 240.49 154.31 241.58 151.83 243.02 150.79 242.84"/><polygon class="cls-11" points="159.71 230.09 163.91 220.55 169.05 215.72 170.73 212.16 174.26 210.14 171.34 212.93 169.88 219.83 165.12 221.13 163.72 225.63 159.71 230.09"/><polygon class="cls-11" points="167.06 224.66 173.77 214.02 172.96 218.2 169.56 223.36 167.06 224.66"/><polygon class="cls-11" points="173.32 227.35 175.17 224.11 175.87 213.78 177.7 210.33 176.75 214.39 176.28 225.12 173.32 227.35"/><polygon class="cls-11" points="147.02 263.13 155.66 264.36 181.3 284.55 182.63 280.51 183.41 266.62 186.55 265.47 185.56 256.13 188.65 253.22 188.28 243.15 189.68 239.99 177.26 226.53 199.77 249.04 210.24 248.75 214.14 250.77 218 247.79 220.75 242.07 230.97 242.28 235.33 243.97 243.51 243.27 243.64 249.44 248.27 247.38 252.75 255.04 258.11 256.94 259.27 260.28 248.6 268.54 240.49 272.37 240.33 277.48 237.54 279.19 231.07 289.74 227.58 290.13 217.17 299.25 212.08 299.39 206.93 302.28 194.54 300.69 194.02 302.69 191.19 301.66 189.84 304.22 181.99 300.77 176.15 294.4 177.91 293.17 145.66 278.35 144.01 273.88 147.3 269.87 145 267.03 147.02 263.13"/><polygon class="cls-11" points="198.91 246.43 200.39 243.81 202.43 243.14 201.08 242.56 201.33 239.65 202.82 237.22 208.35 236.56 214.57 241.71 218.24 242.6 215.49 246.62 206.35 243.51 201.29 246.23 198.91 246.43"/><polygon class="cls-11" points="224.2 239.9 216.01 235.11 211.99 230.06 211.16 222.65 214.08 220.61 225.45 219.78 227.99 224.61 231.59 224.71 231.87 226.88 241.07 236.47 241.09 239.07 242.51 240.54 241.99 242.68 235.15 243.16 229.8 240.12 224.2 239.9"/><polygon class="cls-11" points="211.83 234.06 222.69 239.83 220.06 240.45 218.48 241.88 214.72 239.91 216.82 238.73 211.83 234.06"/><polygon class="cls-9" points="179.15 279.35 179.85 274.89 178.67 269.76 179 267.74 182.04 265.49 167.67 246.7 182.59 265.03 183.55 264.61 184.41 256.15 187.49 251.41 184.78 256.27 184.23 265.29 179.56 268.18 179.37 270.24 180.15 275.05 179.15 279.35"/><polygon class="cls-12" points="190.05 238.2 181.48 228.97 184.94 229.15 182 221.98 178.6 204.99 180.97 222.33 183.64 228.15 177.06 225.58 190.05 238.2"/><polygon class="cls-10" points="201.82 250.06 209.07 257.67 210.85 253.97 218.74 248.06 211.97 254.76 210.17 258.3 212.84 261.22 209.09 258.87 201.82 250.06"/><polygon class="cls-10" points="238.17 266.24 241.26 264.69 242.53 257.73 243.86 256.33 243.84 250.37 247.61 248.27 244.29 250.97 244.79 256.89 243.39 258.38 242.17 266.79 238.17 266.24"/><polygon class="cls-8" points="192.73 300.64 193.48 294.29 206.73 300.42 212.54 298.56 217.33 291.38 231.37 285.84 229.07 288.13 231.07 289.74 227.58 290.13 217.17 299.25 212.08 299.39 206.93 302.28 194.54 300.69 194.02 302.69 191.19 301.66 189.84 304.22 186.42 303.27 189.46 303.02 191.05 300.79 187.75 297.12 191.09 299.33 192.73 300.64"/><polygon class="cls-8" points="224.46 273.69 220.37 268.24 213.95 262.01 217.66 263.95 220.74 259.34 227.97 252.44 224.29 258.47 221.12 264.79 221.34 267.43 224.46 273.69"/><polygon class="cls-8" points="212.03 258.3 214.79 253.8 222.55 246.45 229.66 253.34 228.32 255.55 229.16 258.86 227.34 255.47 229.02 253.4 225.73 250.69 220.64 252.49 216.72 254.68 212.03 258.3"/><polygon class="cls-8" points="231.41 264.4 237.97 261.99 241.6 255.31 243.29 254.36 243.86 256.33 242.53 257.73 241.26 264.69 238.17 266.24 242.17 266.79 243.39 258.38 244.79 256.89 249.24 261.84 244.47 262.56 249.4 262.71 248.53 264.8 251.15 264.33 254.95 261.59 250.21 265.62 241.76 269.64 232.68 268 231.41 264.4"/><polygon class="cls-8" points="225.65 275.36 230.9 284.11 235.06 279 238.01 277.7 234.29 278.5 230.03 280.47 225.65 275.36"/><polygon class="cls-8" points="157.76 265.96 179.78 290 183.76 285.55 187.24 283.8 191.83 283.65 190.05 282.71 185.61 283.09 181.3 284.55 157.76 265.96"/><polygon class="cls-8" points="175.56 295.18 177.91 293.17 182.84 292.29 187.02 284.51 183 294.24 182.58 300.25 175.56 295.18"/><polygon class="cls-8" points="184.46 267.62 203.07 280.47 204.5 285.2 206.34 285.04 209.54 288.69 214.52 283.01 209.79 286.81 206.44 283.8 204.79 283.73 204 279.26 211.57 272.54 203.22 278.61 197.91 275.55 204.62 270.76 201.07 270.33 196.51 272.47 193.91 273.42 191.72 271.85 197.89 265.55 192.96 268.24 189.43 269.16 188.42 269.43 184.46 267.62"/><polygon class="cls-8" points="184.28 280.92 187.04 279.23 193.25 279.12 198.53 280.12 200.44 279.89 198.48 281.23 194.15 280.7 189.88 280.1 186.72 280.43 184.28 280.92"/></g></svg>