<svg xmlns="http://www.w3.org/2000/svg" viewBox="0 0 296.06 420.81"><defs><style>.cls-1{fill:#192123;}.cls-2{fill:#383c66;}.cls-3{fill:#92b9c8;}.cls-4{fill:#89adcb;}.cls-5{fill:#252a60;}.cls-6{fill:#73a3ca;}.cls-7{fill:#385d87;}.cls-8{fill:#a2cce7;}.cls-10,.cls-8,.cls-9{opacity:0.74;}.cls-9{fill:#d0e3f4;}.cls-10{fill:#edffff;}</style></defs><g id="Mülltonne"><ellipse class="cls-1" cx="335.53" cy="523.06" rx="19.27" ry="55.59" transform="matrix(0.99, -0.13, 0.13, 0.99, -142.32, -117.97)"/><polygon class="cls-2" points="46.41 98.58 247.5 88.17 296.06 124.68 87.34 135.24 46.41 98.58"/><polygon class="cls-3" points="294.91 133.34 267.91 391.68 114.27 400.95 76.64 375.58 44.62 103.92 85.84 144.61 294.91 133.34"/><polygon class="cls-4" points="44.62 103.92 85.84 144.61 294.91 133.34 296.06 124.68 87.34 135.24 46.41 98.58 247.5 88.17 247.39 79.94 192.81 0 0 8.74 0.87 17.78 42.38 95.99 44.62 103.92"/><polygon class="cls-4" points="85.84 144.61 114.27 400.95 76.64 375.58 44.62 103.92 85.84 144.61"/><polygon class="cls-5" points="61.5 110.24 245.6 101.57 247.5 88.17 247.58 101.77 282.37 125.36 87.34 135.24 61.5 110.24"/><polygon class="cls-6" points="85.84 144.61 125.02 387.58 267.91 391.68 114.27 400.95 85.84 144.61"/><ellipse class="cls-1" cx="161.33" cy="530.73" rx="19.27" ry="55.59" transform="translate(-144.73 -140.16) rotate(-7.34)"/><polygon class="cls-2" points="46.79 91.44 4.32 11.53 191.59 3.58 243.86 80.07 46.79 91.44"/><polygon class="cls-5" points="4.32 11.53 62.4 47.93 239.96 78.69 46.79 91.44 4.32 11.53"/><polygon class="cls-7" points="0 8.74 45.08 93.82 45.23 99.25 87.11 136.97 87.47 144.31 85.84 144.61 44.54 107.33 42.38 95.99 0.87 17.78 0 8.74"/></g><g id="Flasche"><path class="cls-8" d="M293.39,462.25l14.33-66a17.29,17.29,0,0,0,3.64-8.75c.39-4.93-12.3-17-12.3-17l.61-2.81s3.41.26,3.58-.95-1.89-2-1.89-2l.16-.73c.69-.05,1.18-1,1.18-1s.36-1.19.52-1.93a1.39,1.39,0,0,0-.41-1.25c.43-.19.92-1.53,1.38-2.3a13.24,13.24,0,0,0,.64-7.82c-.92-2.9-10-5.25-10-5.25h-.06s-9.21-1.62-11.25.64a13.14,13.14,0,0,0-2.66,7.38c.1.89,0,2.31.3,2.67a1.39,1.39,0,0,0-.89,1c-.16.74-.33,2-.33,2s.06,1.08.66,1.4l-.16.74s-2.17-.19-2.53,1,2.87,2.36,2.87,2.36l-.61,2.8s-16.57,5.76-18.26,10.41a17.35,17.35,0,0,0-.32,9.48l-14.33,66a8.43,8.43,0,0,0-3,4l-2.1,9.67s-1.14,6.6,7.21,10.34a75.14,75.14,0,0,0,15.72,5,76.11,76.11,0,0,0,16.38,1.92c9.15.05,10.85-6.43,10.85-6.43l2.1-9.66A8.46,8.46,0,0,0,293.39,462.25Z" transform="translate(-78.25 -165.11)"/><path class="cls-9" d="M293.4,462.28l14.33-66a17.35,17.35,0,0,0,3.64-8.75c.39-4.93-12.3-17-12.3-17l.6-2.77-15.48-3.36L298,367.52l-.71,3.31s13,12.74,10.8,20.17c-1.4,4.69-2.14,5.31-2.14,5.31l-14.64,67.46s2.15,6.08-3.94,18.13c0,.1-.1.19-.14.28a8.94,8.94,0,0,0,5.11-5.37l2.1-9.67A8.4,8.4,0,0,0,293.4,462.28Z" transform="translate(-78.25 -165.11)"/><path class="cls-9" d="M289.39,371.25a40.72,40.72,0,0,0,5.64.8s8.7,11.62,8.48,12.63S289,384,287.69,383.47,289.39,371.25,289.39,371.25Z" transform="translate(-78.25 -165.11)"/><path class="cls-9" d="M284.8,369.71a12.33,12.33,0,0,0,2.19.82c.61.09-2.29,12-3.34,12.07s-6.5-1.32-6.7-2.18S284.8,369.71,284.8,369.71Z" transform="translate(-78.25 -165.11)"/><path class="cls-9" d="M300.74,395.54s-13,65.63-14.2,67.82,12-65.84,12.83-67.94S300.74,395.54,300.74,395.54Z" transform="translate(-78.25 -165.11)"/><path class="cls-10" d="M292.07,372.24s3,11.48,3.44,12,.62.15.62.15a19.67,19.67,0,0,1-.88-3.75c.13-.57.87-1,.76-2s-1.06-1.93-1.43-2.77A34.91,34.91,0,0,0,292.07,372.24Z" transform="translate(-78.25 -165.11)"/><path class="cls-10" d="M288.22,376.76c.74.1,4.12.4,4.85.56s1.27.44.64.57a35,35,0,0,1-4.6-.45C288.63,377.39,288.22,376.76,288.22,376.76Z" transform="translate(-78.25 -165.11)"/><path class="cls-10" d="M301.55,399s-9.66,43.66-9.6,45.08,10.37-44.73,10.35-45.95S301.55,399,301.55,399Z" transform="translate(-78.25 -165.11)"/><path class="cls-10" d="M294.73,373.48c1.35,1.64,2.71,5.25,2.54,5.66S294.73,373.48,294.73,373.48Z" transform="translate(-78.25 -165.11)"/><path class="cls-10" d="M285.57,371.53s-3.39,7.61-3.78,8.87-.27,1.56,0,1.37,4-9.55,4.14-10.22S285.57,371.53,285.57,371.53Z" transform="translate(-78.25 -165.11)"/><path class="cls-10" d="M280.28,381.38c.52-1,1.67-3.86,1.67-3.86s-1.83,3-1.75,3.42Z" transform="translate(-78.25 -165.11)"/><ellipse class="cls-10" cx="276.79" cy="424.75" rx="27.03" ry="17.74" transform="translate(-275.26 440.05) rotate(-77.76)"/></g></svg>