<svg id="Flasche" xmlns="http://www.w3.org/2000/svg" viewBox="0 0 184.25 502.62"><defs><style>.cls-1{fill:#a2cce7;}.cls-2{fill:#d0e3f4;}.cls-3{fill:#edffff;}</style></defs><path class="cls-1" d="M345.39,609.05V366.59s8.45-15.89,6.09-33.48-56.1-50.39-56.1-50.39v-10.3s12.18-1.69,11.84-6.09-8.12-5.41-8.12-5.41v-2.7c2.37-.68,3.38-4.4,3.38-4.4s.34-4.45.34-7.16a5,5,0,0,0-2.36-4.06c1.35-1,2.05-6.08,3.07-9.13s1.69-18.45-3.72-27.91-39-10.81-39-10.81h-.22s-33.55,1.34-39,10.81-4.74,24.87-3.72,27.91,1.72,8.12,3.07,9.13a5,5,0,0,0-2.37,4.06c0,2.71.34,7.16.34,7.16s1,3.72,3.38,4.4v2.7s-7.78,1-8.11,5.41,11.83,6.09,11.83,6.09v10.31s-53.72,32.8-56.09,50.38,6.09,33.48,6.09,33.48V609.05s-7.1,7.78-7.44,16.24v35.5s1,24,33.14,30.78a272.54,272.54,0,0,0,59,5.75,272.5,272.5,0,0,0,58.93-5.76c32.12-6.76,33.14-30.77,33.14-30.77V625.28C352.49,616.83,345.39,609.05,345.39,609.05Z" transform="translate(-168.65 -194.75)"/><path class="cls-2" d="M345.46,609.18V366.71s8.45-15.89,6.09-33.47-56.09-50.39-56.09-50.39V272.7H238.6l51,.63v12.16S345,320.24,342.83,348c-1.35,17.53-3.47,20.26-3.47,20.26V616s12.15,19.68,0,66.56c-.1.37-.21.72-.32,1.08,13.29-9.57,13.86-22.7,13.86-22.7V625.41C352.56,617,345.46,609.18,345.46,609.18Z" transform="translate(-168.65 -194.75)"/><path class="cls-2" d="M262.1,293s11.87,0,20.4-1.49c0,0,39.33,34.14,39.33,37.85s-51.57,8.53-56.39,7.79S262.1,293,262.1,293Z" transform="translate(-168.65 -194.75)"/><path class="cls-2" d="M244.85,291.08s6.06,1.4,8.28,1.23,1.11,43.83-2.53,44.85-23.79.32-25.13-2.55S244.85,291.08,244.85,291.08Z" transform="translate(-168.65 -194.75)"/><path class="cls-2" d="M320.39,369.55s4.29,240.06,1.84,248.64-8-240.07-6.74-248S320.39,369.55,320.39,369.55Z" transform="translate(-168.65 -194.75)"/><path class="cls-3" d="M272.24,294.43s19.35,37.95,21.21,39.44,2.3,0,2.3,0-5.95-10.35-5.95-12.46,2.3-4,1.15-7.48-5.17-5.94-7.09-8.62S272.24,294.43,272.24,294.43Z" transform="translate(-168.65 -194.75)"/><path class="cls-3" d="M262.2,313.2c2.68-.2,14.76-1.73,17.44-1.73s4.8.58,2.69,1.53-14.76,1.73-16.49,1.92S262.2,313.2,262.2,313.2Z" transform="translate(-168.65 -194.75)"/><path class="cls-3" d="M325.85,381s-.65,160.48.66,165.41,2.3-164.75,1.32-169S325.85,381,325.85,381Z" transform="translate(-168.65 -194.75)"/><path class="cls-3" d="M282.53,296.76c6,4.72,13.51,16.34,13.2,17.91S282.53,296.76,282.53,296.76Z" transform="translate(-168.65 -194.75)"/><path class="cls-3" d="M248.92,296.88s-6.08,29.27-6.49,34,.24,5.68,1.17,4.78,6.62-36.48,6.75-39S248.92,296.88,248.92,296.88Z" transform="translate(-168.65 -194.75)"/><path class="cls-3" d="M237.87,335.44c1-4,2.93-14.8,2.93-14.8s-4.18,11.84-3.56,13.32Z" transform="translate(-168.65 -194.75)"/><ellipse class="cls-3" cx="89.99" cy="295.47" rx="63.65" ry="96.98"/></svg>