<?xml version="1.0" encoding="UTF-8"?>
<!-- Created with Inkscape (http://www.inkscape.org/) -->
<svg width="1834.9" height="1834.9" version="1.1" viewBox="0 0 1834.9 1834.9" xml:space="preserve" xmlns="http://www.w3.org/2000/svg"><defs><clipPath id="clipPath39"><path d="m0 5e3h5e3v-5e3h-5e3z"/></clipPath></defs><g transform="matrix(1.3333 0 0 -1.3333 -783.36 6547.6)"><g transform="matrix(.51676 .51676 -.51676 .51676 1618.1 930.61)"><g transform="matrix(.66717 0 0 .66717 949.83 1613.6)" clip-path="url(#clipPath39)"><g transform="translate(2989.8 3021.8)"><path d="m0 0c-37.242 29.885-84.511 47.827-136.02 47.825l1e-3 596.54c0 157.44 127.63 285.08 285.08 285.08l596.53-1e-3z" fill="#8c9d99"/></g><g transform="translate(3713.2 3940.6)"><path d="m0 0-574.25 2e-3c-151.3-2e-3 -274.39-123.09-274.39-274.39l3e-3 -586.08c44.911-2.035 87.232-16.915 123.53-43.437zm-866.89-878.48c-2.005 2.005-3.129 4.724-3.129 7.559v596.53c-3e-3 163.09 132.68 295.77 295.77 295.77h596.53c4.115 0 7.884-2.342 9.639-6.066 1.779-3.708 1.274-8.105-1.297-11.312l-745.6-929.44c-1.773-2.212-4.355-3.627-7.174-3.937-2.821-0.31-5.651 0.512-7.86 2.288-37.065 29.752-81.786 45.476-129.32 45.474-2.835 0-5.555 1.124-7.56 3.13"/></g><g transform="translate(4550.7 3136.1)"><path d="m0 0c104.77-104.76 30.573-283.88-117.58-283.88h-480.22l-881.66 0.049c1e-3 68.54-31.799 129.77-81.338 169.53l745.6 929.44z" fill="#a7bdb1"/></g><g transform="translate(3015.3 3013.3)"><path d="m0 0c40.075-40.075 63.679-93.315 66.307-150.34l1351.4-0.047c64.134 3e-3 119.22 36.81 143.76 96.061 24.536 59.247 11.61 124.22-33.738 169.57l-806.77 806.7-731.6-911.99c3.652-3.219 7.188-6.538 10.603-9.954m48.304-168.59c-1.934 1.934-3.13 4.606-3.13 7.559-5e-3 62.989-28.146 121.75-77.342 161.19-4.558 3.701-5.343 10.421-1.648 15.025l745.6 929.44c1.903 2.369 4.725 3.818 7.756 3.986 3.034 0.165 5.997-0.967 8.146-3.115l815.21-815.14-7.559-7.56 7.559 7.56c51.579-51.579 66.287-125.48 38.37-192.87-27.909-67.389-90.564-109.26-163.51-109.26l-1361.9 0.047c-2.953 0-5.625 1.196-7.559 3.13"/></g><g transform="translate(3952.8 1970.7)"><path d="m0 0-929.49 745.54c29.934 37.292 47.824 84.513 47.824 136.02l596.6-0.034c157.44-8e-3 285.06-127.64 285.06-285.08z" fill="#7e5e34"/></g><g transform="translate(3081.6 2841.6)"><path d="m0 0c-2.037-44.913-16.914-87.232-43.424-123.52l903.95-725.07v574.17c-6e-3 151.29-123.09 274.37-274.37 274.39zm-65.826-132.88c-1.712 1.713-2.803 3.964-3.069 6.395-0.307 2.818 0.517 5.645 2.291 7.857 29.746 37.058 45.464 81.774 45.469 129.32 0 2.835 1.127 5.557 3.13 7.56s4.725 3.13 7.56 3.13l596.6-0.03c163.08-5e-3 295.75-132.69 295.75-295.77l3e-3 -596.45c0-4.114-2.357-7.859-6.063-9.637-3.711-1.781-8.106-1.274-11.317 1.297l-929.48 745.54c-0.306 0.246-0.596 0.507-0.869 0.78"/></g><g transform="translate(3952.8 1970.6)"><path d="m0 0-815.14-815.14c-104.76-104.76-283.88-30.563-283.88 117.59l1e-3 1361.9c68.587-0.052 129.82 31.75 169.53 81.338l929.49-745.54z" fill="#d2a44f"/></g><g transform="translate(2864.5 2624.5)"><path d="m0 0-5e-3 -1351.4c2e-3 -64.128 36.812-119.22 96.058-143.76 59.247-24.54 124.23-11.614 169.57 33.731l806.76 806.76-912.08 731.58c-40.939-46.544-98.373-74.101-160.31-76.914m29.341-1476.1c-32.215 32.216-50.727 76.161-50.725 124.66l5e-3 1361.9c-2e-3 2.837 1.127 5.556 3.135 7.564 2.004 2.003 4.727 3.128 7.562 3.128 63.034-0.05 121.78 28.14 161.18 77.33 1.772 2.214 4.355 3.636 7.175 3.946s5.642-0.514 7.859-2.288l929.48-745.54c2.584-2.112 4.072-5.264 3.999-8.585-0.065-2.751-1.189-5.476-3.133-7.419l-815.14-815.14c-51.576-51.576-125.48-66.276-192.87-38.365-22.581 9.354-42.294 22.609-58.53 38.845"/></g><g transform="translate(2684.4 2988.3)"><path d="m0 0-929.49 745.64 815.06 815.13c104.75 104.76 283.87 30.578 283.88-117.57l0.029-480.21-1e-3 -881.61c-68.537 1e-3 -129.72-31.749-169.48-81.386" fill="#d2a44f"/></g><g transform="translate(2798.5 4541.1)"><path d="m0 0c-14.277 14.277-31.607 25.929-51.466 34.152-59.251 24.536-124.22 11.612-169.57-33.736l-806.62-806.7 912.03-731.64c40.927 46.527 98.347 74.099 160.25 76.951l-0.027 1351.4c-5e-3 42.634-16.278 81.279-44.598 109.6m-1051.2-814.72c-1.853 1.853-2.972 4.331-3.115 6.974-0.167 3.031 0.965 5.994 3.115 8.144l815.06 815.13c51.573 51.578 125.48 66.281 192.87 38.369 67.381-27.921 109.25-90.571 109.26-163.5l0.026-1361.8c0-5.905-4.783-10.689-10.689-10.689-63.011 0-121.74-28.204-161.13-77.379-1.772-2.215-4.356-3.637-7.176-3.947s-5.645 0.517-7.86 2.288l-929.49 745.65c-0.305 0.246-0.596 0.507-0.869 0.78"/></g><g transform="translate(2691.6 2995.5)"><path d="m0 0-920.1 739.17 802.11 802.21c55.297 55.299 131.81 59.727 190.97 29.335-22.914-7.54-44.914-20.654-64.255-39.996l-682.17-682.25c-64.054-64.062-58.315-169.55 12.31-226.28l715.01-574.39c-20.609-12.723-38.816-28.933-53.88-47.791" fill="#7e5e34"/></g><g transform="translate(2997.4 3011.6)"><path d="m0 0 739.17 920.09 802.21-802.11c55.299-55.298 59.726-131.81 29.335-190.97-7.541 22.914-20.654 44.915-39.996 64.256l-682.26 682.17c-64.062 64.054-169.55 58.315-226.28-12.31l-574.39-715.01c-12.722 20.609-28.933 38.816-47.79 53.88" fill="#8c9d99"/></g><g transform="translate(3021.4 2706.3)"><path d="m0 0 920.09-739.17-802.11-802.21c-55.298-55.299-131.81-59.726-190.97-29.335 22.914 7.541 44.915 20.654 64.256 39.996l682.17 682.26c64.054 64.061 58.316 169.55-12.309 226.28l-715.01 574.39c20.61 12.723 38.817 28.933 53.881 47.791" fill="#7e5e34"/></g><g transform="translate(2636.5 2852.2)"><path d="m0 0-596.6 0.035c-157.44 9e-3 -285.06 127.64-285.06 285.08l-1e-3 596.55 929.49-745.64c-29.936-37.295-47.827-84.515-47.826-136.02" fill="#7e5e34"/></g><g transform="translate(1765.6 3711.6)"><path d="m0 0v-574.27c7e-3 -151.28 123.08-274.38 274.38-274.38l586.15-0.033c2.032 44.908 16.915 87.232 43.431 123.52zm65.346-783.31c-53.562 53.562-86.724 127.49-86.724 209.04v596.55c0 4.114 2.357 7.86 6.063 9.636 3.711 1.782 8.106 1.275 11.316-1.296l929.49-745.65c2.234-1.791 3.624-4.363 3.936-7.175 0.308-2.818-0.516-5.645-2.291-7.857-29.749-37.063-45.475-81.781-45.473-129.32 0-2.834-1.127-5.556-3.13-7.559s-4.725-3.13-7.559-3.13l-596.6 0.037c-81.53 2e-3 -155.48 33.175-209.03 86.722"/></g><g transform="translate(1968.9 1756.5)"><path d="m0 0-811.92 811.92c-104.76 104.76-30.564 283.88 117.58 283.88l480.26 1e-3 881.66-0.052c1e-3 -68.536 31.701-129.66 81.337-169.43z" fill="#a7bdb1"/></g><g transform="translate(2626.1 2841.5)"><path d="m0 0-1351.5 0.049c-64.129 3e-3 -119.21-36.804-143.76-96.053-24.541-59.251-11.615-124.23 33.73-169.57l803.52-803.52 734.85 908.91c-46.473 40.971-74.024 98.297-76.869 160.18m-664.7-1092.6-811.92 811.92c-51.578 51.578-66.278 125.48-38.362 192.87 27.912 67.386 90.566 109.25 163.51 109.25l1361.9-0.05c5.906 0 10.689-4.783 10.689-10.689 3e-3 -63.006 28.212-121.71 77.333-161.08 2.209-1.766 3.637-4.375 3.944-7.192 0.303-2.832-0.529-5.662-2.315-7.872l-748.92-926.31c-1.904-2.357-4.727-3.797-7.749-3.954-3.029-0.16-5.982 0.972-8.125 3.115"/></g><g transform="translate(2853.8 2038.3)"><path d="m0 0c0-157.45-127.64-285.09-285.09-285.08l-596.57 0.033-3.225 3.226 748.92 926.31c37.194-30.033 84.514-47.924 135.97-47.874z" fill="#8c9d99"/></g><g transform="translate(2719.6 2668)"><path d="m0 0-730.9-904.02 580.01-0.035c73.295-5e-3 142.2 28.54 194.03 80.365s80.373 120.73 80.372 194.03l1e-3 586.18c-44.5 2.069-87.664 17.269-123.52 43.49m-755.01-922.27-3.226 3.227c-3.866 3.865-4.191 10.027-0.756 14.279l748.92 926.31c3.711 4.587 10.436 5.303 15.027 1.598 36.401-29.384 82.299-45.546 129.25-45.504 2.84 5e-3 5.559-1.12 7.567-3.127l3e-3 -3e-3c2.004-2.005 3.129-4.724 3.129-7.559l-3e-3 -596.62c5e-3 -79.003-30.76-153.28-86.63-209.14-55.871-55.865-130.15-86.631-209.15-86.624l-596.57 0.035c-2.835 0-5.554 1.125-7.559 3.129"/></g><g transform="translate(3945.3 1963.1)"><path d="m0 0-0.049 0.049c-4.176 4.176-4.174 10.945 0 15.119 4.173 4.173 10.943 4.176 15.118 0 4.176-4.176 4.199-10.97 0.025-15.144-4.173-4.172-10.918-4.2-15.094-0.024"/></g><g transform="translate(2707.9 2693.3)"><path d="m0 0-739.17-920.09-802.21 802.11c-55.298 55.299-59.726 131.81-29.334 190.97 7.54-22.915 20.654-44.915 39.996-64.256l682.25-682.17c64.062-64.054 169.55-58.315 226.28 12.31l574.39 715.01c12.723-20.609 28.933-38.816 47.791-53.88" fill="#8c9d99"/></g><g transform="translate(2853.8 2634.9)"><path d="m0 0c-51.453-0.05-98.773 17.841-135.97 47.874-49.637 39.764-81.336 100.89-81.337 169.43-1e-3 51.503 17.89 98.723 47.826 136.02 39.76 49.637 100.94 81.387 169.48 81.387 51.506 1e-3 98.774-17.941 136.02-47.826 49.539-39.76 81.338-100.99 81.338-169.53 0-51.503-17.89-98.724-47.825-136.02-39.711-49.588-100.94-81.39-169.53-81.338" fill="#fefae0"/></g><g transform="translate(3000.2 2998.2)"><path d="m0 0c-5.356 5.357-11.036 10.446-17.027 15.256-37.066 29.753-81.786 45.476-129.32 45.474-63.011-2e-3 -121.74-28.204-161.13-77.379-29.757-37.075-45.484-81.793-45.482-129.34 3e-3 -63.006 28.212-121.71 77.333-161.08 36.428-29.41 82.325-45.573 129.27-45.531 7e-3 3e-3 9e-3 0 0.017 3e-3 63.033-0.049 121.78 28.14 161.18 77.33 29.752 37.07 45.471 81.786 45.475 129.33-4e-3 55.312-21.737 107.36-60.314 145.94m-307.92-306.82c-42.481 42.482-66.422 99.828-66.419 160.83-5e-3 52.458 17.348 101.81 50.179 142.71 43.461 54.258 108.27 85.384 177.81 85.384 52.457 5e-3 101.8-17.351 142.71-50.179 54.193-43.552 85.33-108.36 85.335-177.87 0-52.461-17.35-101.81-50.173-142.7-43.474-54.275-108.3-85.384-177.87-85.339-51.82-0.042-102.5 17.8-142.68 50.25-6.652 5.322-12.956 10.977-18.894 16.914"/></g><g transform="translate(2961.6 3091)"><path d="m0 0c-3.78 3.78-4.216 9.875-0.825 14.171l202.9 257.15c3.659 4.639 10.379 5.429 15.013 1.77 4.663-3.61 5.431-10.382 1.774-15.013l-202.9-257.15c-3.659-4.639-10.379-5.428-15.013-1.77-0.34 0.261-0.654 0.547-0.949 0.842" fill="#fff"/></g><g transform="translate(3295 3513.5)"><path d="m0 0c-3.78 3.78-4.216 9.875-0.824 14.171l234.19 296.8c3.659 4.638 10.379 5.428 15.013 1.769 4.683-3.62 5.428-10.379 1.773-15.013l-234.19-296.8c-3.659-4.638-10.379-5.428-15.013-1.769-0.339 0.26-0.654 0.546-0.949 0.841" fill="#fff"/></g><g transform="translate(2483.1 2292.3)"><path d="m0 0c-3.779 3.78-4.215 9.875-0.824 14.172l202.9 257.15c3.659 4.638 10.38 5.428 15.013 1.769 4.698-3.566 5.429-10.379 1.774-15.013l-202.9-257.15c-3.659-4.638-10.38-5.428-15.013-1.769-0.34 0.261-0.655 0.546-0.95 0.841" fill="#fff"/></g><g transform="translate(2118.4 1830.1)"><path d="m0 0c-3.78 3.779-4.215 9.874-0.824 14.171l234.19 296.8c3.659 4.638 10.379 5.428 15.013 1.769 4.661-3.578 5.428-10.379 1.774-15.012l-234.19-296.8c-3.659-4.638-10.379-5.428-15.012-1.769-0.34 0.261-0.655 0.546-0.95 0.842" fill="#fff"/></g><g transform="translate(3141.8 2675.9)"><path d="m0 0c-3.779 3.78-4.215 9.875-0.824 14.171 3.659 4.639 10.379 5.429 15.012 1.769l257.16-202.9c4.692-3.57 5.435-10.377 1.774-15.013-3.659-4.638-10.38-5.428-15.013-1.769l-257.16 202.9c-0.34 0.26-0.655 0.546-0.95 0.841" fill="#fff"/></g><g transform="translate(3564.3 2342.5)"><path d="m0 0c-3.779 3.78-4.215 9.875-0.824 14.172 3.659 4.638 10.379 5.428 15.012 1.768l296.8-234.19c4.718-3.556 5.431-10.382 1.775-15.013-3.66-4.638-10.379-5.428-15.013-1.769l-296.8 234.19c-0.34 0.261-0.654 0.546-0.95 0.841" fill="#fff"/></g><g transform="translate(2300.2 3195)"><path d="m0 0c-3.78 3.78-4.215 9.875-0.824 14.171 3.658 4.639 10.379 5.429 15.012 1.769l257.15-202.91c4.663-3.6 5.431-10.382 1.773-15.013-3.658-4.638-10.379-5.428-15.012-1.769l-257.15 202.91c-0.34 0.26-0.655 0.546-0.95 0.841" fill="#fff"/></g><g transform="translate(1838.1 3559.7)"><path d="m0 0c-3.78 3.78-4.215 9.875-0.824 14.171 3.658 4.639 10.379 5.429 15.012 1.769l296.8-234.19c4.683-3.601 5.431-10.382 1.775-15.013-3.66-4.639-10.38-5.428-15.014-1.77l-296.8 234.19c-0.34 0.261-0.655 0.547-0.95 0.842" fill="#fff"/></g><g transform="translate(2954.2 2745.4)"><path d="m0 0c-4.176 4.176-4.173 10.945 0 15.119 52.959 52.959 52.959 139.13 0 192.09-4.176 4.176-4.173 10.945 0 15.119 4.174 4.173 10.943 4.176 15.119 0 61.296-61.296 61.296-161.03 0-222.33-4.174-4.173-10.943-4.176-15.119 0"/></g></g></g></g></svg>
