<?xml version="1.0" encoding="UTF-8"?>
<!-- Created with Inkscape (http://www.inkscape.org/) -->
<svg width="20" height="264.87" version="1.1" viewBox="0 0 20 264.87" xml:space="preserve" xmlns="http://www.w3.org/2000/svg"><defs><clipPath id="clipPath39"><path d="m0 5e3h5e3v-5e3h-5e3z"/></clipPath></defs><g transform="matrix(1.3333 0 0 -1.3333 -1971.5 4683.1)"><g transform="rotate(45 1645.1 2143.7)"><g transform="matrix(.66717 0 0 .66717 949.83 1613.6)" clip-path="url(#clipPath39)"><path d="m2115.1 2203.9-0.5879 0.5879c-3.9381 3.9381-0.3547 13.907 8.0042 22.265l193.18 193.18 14.849-14.849-193.18-193.18c-8.3587-8.3586-18.327-11.942-22.265-8.0041" fill="#bc6c25"/><g><path d="m2315.1 2418.3-192.07-192.07c-7.7315-7.7317-11.058-16.986-7.4155-20.628l0.5879-0.5878c3.6428-3.6428 12.897-0.3161 20.628 7.4156l192.07 192.07zm-201.12-215.51-0.5879 0.5878c-4.2209 4.221-0.3659 14.944 8.5927 23.902l193.18 193.18c0.6146 0.6146 1.3477 0.8783 1.6374 0.5886l14.849-14.849c0.2897-0.2897 0.028-1.0229-0.5886-1.6373l-193.18-193.18c-8.9592-8.9591-19.682-12.814-23.903-8.5928"/><path d="m2238.8 2335.2c-0.2897 0.2897-0.028 1.0228 0.5886 1.6374l59.884 59.884c0.6146 0.6143 1.3477 0.8781 1.6374 0.5885 0.2896-0.2897 0.028-1.0227-0.5885-1.6372l-59.884-59.884c-0.6145-0.6144-1.3477-0.8783-1.6373-0.5886"/><path d="m2151.2 2239.2c-0.2896 0.2896-0.028 1.0229 0.5886 1.6371l104.17 104.17c0.6144 0.6144 1.3476 0.8783 1.6373 0.5886 0.2895-0.2897 0.028-1.0228-0.5886-1.6373l-104.17-104.17c-0.6142-0.6144-1.3475-0.8782-1.6372-0.5885"/><path d="m2182.3 2278.7c-0.2896 0.2896-0.028 1.0229 0.5886 1.6373l32.025 32.025c0.6145 0.6145 1.3477 0.8782 1.6373 0.5886 0.2897-0.2897 0.028-1.0229-0.5885-1.6372l-32.025-32.025c-0.6145-0.6144-1.3476-0.8782-1.6373-0.5886"/><path d="m2133.5 2229.9c-0.2897 0.2897-0.028 1.023 0.5886 1.6373l32.025 32.025c0.6145 0.6142 1.3477 0.8782 1.6375 0.5885 0.2896-0.2896 0.028-1.0228-0.5887-1.6373l-32.025-32.025c-0.6144-0.6144-1.3476-0.8783-1.6372-0.5887"/></g></g></g></g></svg>
