<?xml version="1.0" encoding="UTF-8"?>
<svg enable-background="new 0 0 381.775 409.114" viewBox="0 0 381.775 409.114" xmlns="http://www.w3.org/2000/svg">
 <path d="m380.136,342.833-92.413-126.538-53.815-73.688-10.814-14.808c-.418-.572.836-3.532.695-4.731-.401-3.433-2.231-6.511-3.657-9.754-4.644-10.561-8.08-25.719-17.251-33.224-7.977-6.527-15.879-5.733-25.785-4.879 5.443,4.898 12.313,5.969 18.005,9.757 6.16,4.101 7.86,10.662 10.843,17.338l8.901,19.924c1.305,2.92-8.346,6.882-10.645,8.319l-16.497,10.31c-1.458.912-12.815-4.689-15.022-5.248-10.465-2.646-22.123-1.93-32.195,2.1-10.374,4.15-20.082,11.548-31.277,13.354-22.461,3.624-38.464-4.027-52.693-20.525l-33.045-38.314c-3.74-4.334-11.681-10.666-13.872-16.086-3.177-7.859 5.017-6.002 10.453-4.646 6.402,1.598 12.189,4.601 19.049,2.323 9.261-3.075 17.705-11.548 26.54-16.719 10.042-5.877 20.953-10.496 31.975-14.169 8.552-2.851 22.039-3.64 27.905-11.393 1.994-2.634 4.794-9.134 4.415-12.544-.473-4.252-.852-1.541-2.092.464-3.091,4.999-4.785,14.352-12.081,14.868 2.946-5.927 4.992-10.821 6.273-17.423 .402-2.071.796-7.734 3.369-8.247 5.533-1.103 12.968,4.993 17.222,7.938 10.643,7.37 17.294,20.853 20.539,33.04 1.718,6.455 3.902,12.851 7.773,18.378 1.028,1.468 4.647,7.332 6.534,7.169l13.096-1.129c-19.456-9.734-18.627-33.443-29.504-49.947-6.832-10.367-36.477-37.242-45.415-16.378-3.034,7.082-1.735,17.639-7.552,22.651-5.466,4.71-18.697,5.962-26.087,9.3-10.846,4.899-21.573,10.157-31.525,16.718-2.92,1.925-5.734,4.029-8.596,6.04 .101-.209.256-.287.465-.232-5.289,3.304-8.585,4.535-15.565,2.556-5.904-1.674-12.312-4.635-18.585-2.556-7.778,2.579-10.121,9.957-6.62,16.959 6.206,12.411 19.853,23.684 28.923,34.266 8.399,9.798 17.687,23.175 26.947,30.781-4.804,3.517-21.147,16.329-11.151,23.812 1.655,1.239 3.641,1.921 5.713,2.011 7.64.331 3.286,4.54 6.134,9.953 1.213,2.306 2.533,3.382 4.88,4.414 5.969,2.623 10.383-2.147 11.67,5.829 1.269,7.869 4.74,9.793 12.49,10.202 7.132.376 3.593,3.881 5.808,9.406 1.004,2.508 2.707,3.937 5.11,4.996 4.066,1.793 10.798-1.567 11.478,3.696 .437,3.38.5,7.231 3.157,9.777 2.118,2.028 4.776,2.293 7.571,2.443 9.402.509 4.563,2.526 7.994,9.404 3.377,6.77 15.707,4.265 16.439,8.808 1.168,7.243 2.617,11.797 10.707,12.222 9.435.494 4.648,1.817 7.701,8.939 .98,2.286 2.341,4.372 4.762,5.343 2.608,1.047 11.583.24 11.828,2.144 .531,4.114.529,7.742 3.04,11.099 1.457,1.946 4.116,2.429 6.33,2.608 1.402.113 7.832-.158 8.043,1.195 .384,2.455.288,5.742 1.31,8.045 .941,2.122 2.028,3.927 4.182,5.109 2.642,1.45 11.922.395 12.177,2.375 .864,6.713 1.436,13.08 9.385,13.707 9.275.731 7.184.369 9.219,8.544 .617,2.479 2.043,4.536 4.297,5.808 3.118,1.76 10.044-.589 12.081,1.394 2.083,2.027.515,8.277 2.671,11.151 1.244,1.657 3.35,3.483 5.576,3.483 2.91,0 5.855.418 8.756.647 1.679.133 1.148,6.169 1.814,7.833 .878,2.195 1.645,4.264 3.833,5.574 3.215,1.927 10.742-.216 12.661,1.744 1.888,1.928.297,7.896 2.092,10.686 1.501,2.333 3.523,3.302 6.154,3.833 2.77.559 5.728.534 8.541.762 1.657.135 1.3,5.755 1.798,7.252 .875,2.631 1.659,4.437 3.95,6.157 3.036,2.281 8.46,1.527 11.889,1.708 1.022.054 1.415,6.369 2.863,7.817 11.141,11.141 23.367-12.11 29.016-18.854l27.571-32.913c2.81-3.355 3.992-7.729 1.141-11.538"/>
 <path d="m162.691,48.728c-1.795-9.118-6.869-18.528-13.009-25.438-4.694-5.282-16.352-16.214-24.276-14.636-3.265.65-3.353,8.992-3.834,11.5-1.063,5.545-3.408,9.342-5.808,14.17 3.373-.239 6.721-4.057 8.553-6.934 .829-1.302 3.642-10.54 4.458-10.721 3.367-.745-4.097,16.652-7.782,18.701-9.236,5.135-20.495,5.769-30.189,9.881-11.375,4.827-22.119,10.066-32.791,16.312-7.229,4.231-14.563,13.185-23.557,13.185-6.863,0-12.162-3.705-18.817-4.415-7.443-.794-9.165,3.614-3.834,8.944 6.291,6.291 11.969,13.302 17.812,20.076 15.105,17.514 29.712,42.305 52.323,50.446 24.499,8.82 42.546-7.658 64.654-13.877 10.104-2.842 22.188-2.775 31.96,1.411 5.005,2.144 7.66,4.458 12.375,1.511l21.117-13.199c4.624-2.89 2.824-3.355.58-8.378-3.438-7.694-6.875-15.389-10.313-23.083-2.408-5.388-4.33-7.468-9.422-9.913-5.721-2.746-13.737-9.255-19.668-8.693-3.05.289-18.044.024-18.314,3.001-.502,5.546-3.56,11.217-8.48,14.055-8.739,5.042-21.326,2.975-30.927,7.296-4.468,2.011-9.492,4.051-13.125,7.426-4.544,4.219-7.027,10.383-13.329,12.459-11.003,3.625-23.224-4.869-23.462-16.494-.226-11 10.969-19.959 18.945-25.94 14.36-10.767 38.133-19.901 56.325-17.27-13.532-2.938-31.456,1.552-44.256,6.504-10.675,4.13-30.312,14.202-32.407,26.948-2.271-7.924 9.361-16.554 14.635-20.675 10.455-8.171 22.607-12.564 35.286-15.9 10.208-2.687 25.54-5.29 33.711,2.891 3.928,3.932 7.201,11.687 7.201,17.423l22.069-2.09c-8.024-7.739-10.492-16.86-14.404-26.484" fill="#5a3d1c"/>
 <path d="m140.855,60.111c.618.174 1.205.357 1.858.465-.653-.107-1.24-.29-1.858-.465"/>
 <path d="m152.47 68.242c-4.781-22.499-38.3-12.024-52.546-6.995-9.86 3.481-39.66 18.61-35.732 32.316 2.268-13.803 24.372-24.418 36.008-28.341 12.652-4.265 29.723-7.942 42.512-4.646-12.279-3.494-29.268 2.656-40.93 7.116-13.663 5.224-40.519 21.769-35.617 39.695 2.494 9.119 12.268 15.083 21.489 12.777 5.582-1.396 8.423-5.265 11.649-9.666 2.878-3.927 7.38-6.225 11.588-8.44 14.539-7.653 43.229-2.792 44.132-24.756-5.389-1.362-4.919 6.51-8.362 9.758-4.705 4.438-10.971 3.335-16.961 4.414-10.312 1.856-22.219 5.516-30.046 12.821-4.209 3.928-6.649 9.796-12.466 11.571-9.172 2.798-18.622-5.43-17.19-14.868 2.705-17.823 29.969-28.367 44.347-33.285 11.819-4.043 35.682-8.579 36.497 9.822 7.022 1.894 3.525-6.198 1.628-9.293"/>
 <path d="m52.343 75.676 1.162-1.162-1.162 1.162"/>
 <path d="m53.97,73.586c.986-.646-.184.12 0,0"/>
 <path d="m54.9 71.727"/>
 <path d="m47.931 60.809"/>
 <path d="m43.747,61.272c-.364.378-.364.378 0,0"/>
 <path d="m46.769,60.576c-.367.377-.367.377 0,0"/>
 <path d="m45.143,60.809c-.19.37-.19.37 0,0"/>
 <path d="m209.85,122.603-14.071,7.329c-5.958,3.103-6.656,4.392-12.645,2.428-9.324-3.057-17.036-5.025-26.967-4.67-19.673.703-34.396,17.244-53.856,17.936-20.818.741-32.409-8.535-45.321-23.255-12.868-14.67-25.923-29.31-38.332-44.371 11.044,2.822 22.537,3.771 30.434-6.041-8.945,5.28-14.349,7.19-24.626,4.414-3.906-1.055-8.327-3.151-12.543-2.787 2.454,4.516 6.905,8.262 10.336,12.124 7.027,7.908 13.851,16.014 20.756,24.03 13.114,15.225 25.671,36.074 47.384,38.49 23.668,2.633 39.822-13.362 62.173-17.087 10.736-1.789 20.035.948 30.099,4.238 6.342,2.073 7.231.065 13.212-3.74 4.399-2.802 10.463-6.252 13.967-9.038"/>
 <path d="m17.497,80.323v-.233 .233z" fill="#fff"/>
 <path d="m200.791,90.777c.112-.114.105-.106 0,0" fill="#fff"/>
 <path d="m187.78,101.23c-21.27-2.469-12.182,34.887 4.646,22.302-4.755,2.127-10.812.831-13.705-3.717 12.255,13.071 28.671-14.939 9.059-18.585"/>
 <path d="m133.886,111.917c-.978,9.325 6.757,21.177 16.958,13.241-4.795,2.4-10.66.852-13.708-3.485 7.629,6.874 21.174.113 18.121-10.569-3.382-11.839-19.026-9.415-21.371.813"/>
 <path d="m95.089,127.249c-.74,9.936 6.537,20.172 17.189,13.242-5.151,2.139-10.573.662-13.938-3.717 7.395,7.037 21.165.296 18.121-10.338-3.277-11.447-18.999-10.218-21.372.813"/>
 <path d="m114.14 130.27c-1.197 10.873-18.197 8.207-16.495-2.556 1.774-11.217 19.522-7.346 16.495 2.556" fill="#bfbfbf"/>
 <path d="m112.048,128.875c-.396,6.074-8.478,8.056-12.081,3.717 5.212,8.393 17.614-.649 11.384-8.131 .765,1.538.787,3.57.697,4.414"/>
 <path d="m107.4 123.3c-2.313 0.626-4.016 10.366-1.626 11.615l1.626-11.615"/>
 <path d="m152.93 114.94c-0.725 10.918-18.435 8.428-16.493-2.556 2.056-11.633 19.829-6.295 16.493 2.556" fill="#bfbfbf"/>
 <path d="m150.844,113.775c-.785,6.043-8.221,7.799-12.081,3.717 5.52,8.285 18.049-1.244 11.151-8.363 1.138,1.619.95,2.916.93,4.646"/>
 <path d="m140.855,108.664c-.698,2.83 4.717,6.836 6.969,9.292l.928-.697-7.897-8.595"/>
 <path d="m194.52 113.31c-1.16 10.921-18.416 8.157-16.727-2.555 1.734-10.996 18.969-7.759 16.727 2.555" fill="#bfbfbf"/>
 <path d="m192.426,111.917c-.645,5.828-8.529,8.338-12.078,3.716 4.721,8.906 18.185-1.23 11.15-8.131 .937,1.584.933,3.476.928,4.415"/>
 <path d="m191.033,109.594c-2.42-1.263-7.343,3.89-9.989,5.808l.696.929 9.293-6.737"/>
 <path d="m205.669,135.38 93.225,127.607 52.581,71.974 9.131,12.498c.919,1.258-22.711,27.104-24.963,29.788l-2.899,3.455 21.039-33.616c1.017-1.624-5.999-9.217-7.02-10.615l-51.062-70.006-62.964-86.324-22.17-30.395c-1.39-1.905-6.182-11.222-8.614-11.81-1.482-.358-7.532,4.691-8.842,5.507-4.323,2.693-4.573,3.624-9.251,1.752-5.949-2.38-12.235-3.94-18.613-4.472-14.408-1.202-27.104,5.896-39.26,12.544-12.686,6.938-26.15,10.218-40.606,8.226-6.854-.945-12.934-2.857-18.996-6.164-2.095-1.143-4.061-4.375-5.995-2.441l-8.743,8.743c4.924.279 11.995-1.727 12.714,3.758 1.372,10.463-.18,10.988 10.298,11.77 8.846.66 7.046,2.651 8.364,11.43 .86,5.734 10.513,3.762 15.655,4.146 2.093.156.721,14.068 2.814,14.224 5.12.382 14.839-1.598 15.604,4.145 1.173,8.799-.677,10.77 8.181,11.431 10.468.78 8.94,1.331 10.481,11.77 .842,5.706 9.555,3.604 14.658,3.909 4.226.252.998,14.07 3.811,14.28 3.211.239 14.961-.708 15.396,2.608l1.472,11.223c.366,2.789 4.563,1.73 7.018,1.875 9.732.573 8.906.021 10.176,9.71 .286,2.182-.398,4.91 2.011,5.09l12.853.959c4.514.337.713,11.852 3.448,14.273 2.92,2.585 15.133-2.375 15.759,2.401 .306,2.333.013,11.176 1.665,12.699 1.727,1.592 10.512.772 12.912.949 4.42.325 3.241,2.893 3.813,7.181 .804,6.03-.38,6.872 5.606,7.319 1.328.099 10.778.069 10.946,1.209 .658,4.459 1.316,8.918 1.975,13.377 .168,1.14 9.616,1.109 10.944,1.209 5.979.445 4.82,1.303 5.723,7.318 .636,4.233-.483,6.855 3.888,7.182 2.381.178 11.004-.624 12.724.949 1.648,1.509 1.36,10.374 1.665,12.696 .411,3.138 8.496,2.084 11.243,2.286 5.218.384 4.707.049 5.401,5.256 .322,2.425-.275,8.922 2.56,9.134l13.847,1.032c1.076.081 1.762,9.021 1.989,10.481 4.619-5.543 45.885-50.571 44.009-53.144l-32.765-44.932-115.775-158.768-8.83-12.109c-3.016-4.131-6.556,2.129-10.231,3.423" fill="#e8deff"/>
</svg>
