<?xml version="1.0" encoding="UTF-8" standalone="no"?><!-- Generator: Gravit.io --><svg xmlns="http://www.w3.org/2000/svg" xmlns:xlink="http://www.w3.org/1999/xlink" style="isolation:isolate" viewBox="94 194 655 210.001" width="655pt" height="210.001pt"><clipPath id="_clipPath_VTyr1MGQ1D3q2XXidc96XuyXuR3ATNPz"><path d=" M 94 207.001 L 111 404.001 L 734 404.001 L 749 194 L 94 207.001 Z " id="Shake it" fill="rgb(255,255,255)"/></clipPath><g clip-path="url(#_clipPath_VTyr1MGQ1D3q2XXidc96XuyXuR3ATNPz)"><path d=" M 205.471 349.311 C 222.541 349.311 234.067 338.63 234.067 324.428 C 234.067 315.459 230.233 310.276 222.686 305.79 L 214.199 300.704 C 208.22 297.062 204.169 294.458 204.169 289.419 C 204.169 283.994 208.629 278.811 216.297 278.811 C 222.806 278.811 227.798 282.282 231.825 286.791 L 240.118 279.123 C 234.645 272.252 226.375 267.574 217.02 267.574 C 202.168 267.574 190.859 278.063 190.859 290.769 C 190.859 300.004 195.875 305.622 202.819 309.914 L 211.113 314.953 C 216.875 318.425 220.612 321.294 220.612 326.285 C 220.612 333.615 214.681 338.22 206.532 338.22 C 198.768 338.22 192.113 334.169 187.629 327.684 L 178.225 334.965 C 185.265 344.923 194.934 349.311 205.471 349.311 Z  M 250.053 347.865 L 262.977 347.865 L 270.933 307.455 C 277.202 301.137 281.832 298.292 285.979 298.292 C 290.946 298.292 293.357 300.848 293.357 305.863 C 293.357 307.696 292.971 309.383 292.392 312.132 L 285.207 347.865 L 298.131 347.865 L 305.605 310.493 C 306.329 307.406 306.57 304.947 306.57 302.198 C 306.57 292.698 302.423 287.201 292.537 287.201 C 285.4 287.201 279.035 291.203 273.055 296.411 L 272.573 296.411 L 274.888 287.828 L 280.048 262.704 L 267.124 262.704 L 250.053 347.865 Z  M 340.664 349.311 C 347.415 349.311 354.6 345.454 360.194 339.619 L 360.531 339.619 L 359.952 347.865 L 370.513 347.865 L 382.376 288.648 L 371.96 288.648 L 369.501 295.543 L 369.163 295.543 C 366.607 290.48 361.399 287.201 355.565 287.201 C 339.217 287.201 323.786 305.091 323.786 327.707 C 323.786 341.644 330.248 349.311 340.664 349.311 Z  M 345.969 338.654 C 340.567 338.654 337.144 334.652 337.144 325.972 C 337.144 310.733 346.354 297.858 356.336 297.858 C 359.952 297.858 363.617 299.98 366.318 305.043 L 361.496 328.672 C 356.722 335.857 351.032 338.654 345.969 338.654 Z  M 395.518 347.865 L 408.442 347.865 L 411.431 333.253 L 423.004 321.583 L 433.131 347.865 L 446.152 347.865 L 432.023 313.964 L 455.892 288.648 L 441.425 288.648 L 415.192 316.231 L 414.807 316.231 L 425.512 262.704 L 412.588 262.704 L 395.518 347.865 Z  M 485.986 349.311 C 494.424 349.311 501.465 346.418 506.191 343.042 L 501.465 334.748 C 498.137 337.16 493.556 339.377 489.409 339.377 C 480.392 339.377 473.351 334.074 474.75 321.294 L 510.916 321.294 C 511.784 319.317 513.375 314.061 513.375 309.045 C 513.375 296.797 508.264 287.201 494.521 287.201 C 478.945 287.201 462.26 302.15 462.26 324.236 C 462.26 340.101 471.856 349.311 485.986 349.311 Z  M 475.908 313.096 C 478.752 303.115 485.889 297.279 492.978 297.279 C 500.162 297.279 502.622 302.439 502.622 308.178 C 502.622 309.962 502.381 311.625 502.043 313.096 L 475.908 313.096 Z  M 560.395 347.865 L 573.415 347.865 L 589.184 269.021 L 576.163 269.021 L 560.395 347.865 Z  M 620.578 349.311 C 625.98 349.311 630.271 347.865 633.164 346.66 L 630.657 337.497 C 629.017 338.317 627.185 339.088 625.159 339.088 C 620.241 339.088 618.312 336.918 618.312 332.53 C 618.312 331.131 618.408 329.83 618.65 328.382 L 624.677 298.871 L 639.144 298.871 L 641.169 288.648 L 626.992 288.648 L 630.078 272.734 L 619.228 272.734 L 614.502 288.648 L 605.533 289.274 L 603.604 298.871 L 611.898 298.871 L 605.87 327.853 C 605.485 330.215 605.099 332.385 605.099 334.844 C 605.099 343.09 609.439 349.311 620.578 349.311 Z  M 659.712 322.355 L 668.392 322.355 L 678.567 280.208 L 681.46 266.996 L 668.536 266.996 L 659.712 322.355 Z  M 659.085 349.311 C 664.92 349.311 668.97 344.2 668.97 339.088 C 668.97 334.748 666.27 331.469 661.93 331.469 C 656.095 331.469 651.949 336.822 651.949 341.789 C 651.949 346.177 654.745 349.311 659.085 349.311 Z " id="Zusammengesetzte Strecke" fill="rgb(255,255,255)"/><path d=" M 678.085 225.399 C 678.085 225.399 716.982 228.429 715.198 271.602" id="Strecke" fill="none" vector-effect="non-scaling-stroke" stroke-width="12" stroke="rgb(255,255,255)" stroke-linejoin="miter" stroke-linecap="round" stroke-miterlimit="3" style="mix-blend-mode:source-over;"/><path d=" M 705 216.167 C 705 216.167 729.336 225.604 730 251.167" id="Strecke" fill="none" vector-effect="non-scaling-stroke" stroke-width="11" stroke="rgb(255,255,255)" stroke-linejoin="miter" stroke-linecap="round" stroke-miterlimit="3" style="mix-blend-mode:source-over;"/><path d=" M 185.572 369.877 C 185.572 369.877 146.675 366.847 148.459 323.674" id="Strecke" fill="none" vector-effect="non-scaling-stroke" stroke-width="12" stroke="rgb(255,255,255)" stroke-linejoin="miter" stroke-linecap="round" stroke-miterlimit="3" style="mix-blend-mode:source-over;"/><path d=" M 157 381 C 157 381 131.924 372.562 131.167 347" id="Strecke" fill="none" vector-effect="non-scaling-stroke" stroke-width="11" stroke="rgb(255,255,255)" stroke-linejoin="miter" stroke-linecap="round" stroke-miterlimit="3" style="mix-blend-mode:source-over;"/></g></svg>