<svg id="Kiesel" xmlns="http://www.w3.org/2000/svg" viewBox="0 0 78.07 51.38"><defs><style>.cls-1{fill:#b1b1b1;}.cls-2{fill:#9c9b9b;}.cls-3{fill:#c6c6c5;}.cls-4{fill:#d9d9d9;}</style></defs><polygon class="cls-1" points="0.89 31.3 28.48 2.33 37.78 0 54.38 10.37 74.6 26.54 78.07 34.99 68.73 50.5 55.22 51.38 22.5 46.77 18.19 47.5 3.9 43.1 0 38.58 0.89 31.3"/><polygon class="cls-2" points="20.92 38.9 23.54 41.51 54.74 47.61 66.46 44.03 66.91 34.53 74.6 26.54 78.07 34.99 68.73 50.5 55.22 51.38 22.5 46.77 18.19 47.5 3.9 43.1 0 38.58 0.89 31.3 11.47 39.2 20.92 38.9"/><polygon class="cls-3" points="30 32.49 41.09 16.4 54.38 10.37 37.78 0 28.48 2.33 0.89 31.3 11.47 39.2 20.92 38.9 30 32.49"/><polygon class="cls-4" points="28.92 3.23 36.73 3.11 52.55 9.76 41.09 16.4 54.38 10.37 37.78 0 28.48 2.33 23.56 8.23 28.92 3.23"/></svg>