<svg id="Stein" xmlns="http://www.w3.org/2000/svg" viewBox="0 0 62.89 59.71"><defs><style>.cls-1{fill:#acacac;}.cls-2{fill:#868686;}.cls-3{fill:#bfc1bf;}.cls-4{fill:#9c9b9b;}</style></defs><polygon class="cls-1" points="0 33.43 9.46 7.57 36.59 0 43.21 0.63 59.42 20.06 62.89 31.73 51.1 52.99 27.62 59.7 24.47 59.7 9.01 48.66 0 33.43"/><polygon class="cls-2" points="46.89 31.56 55.93 14.38 59.42 20.06 62.89 31.73 51.1 52.99 27.62 59.7 24.47 59.7 9.01 48.66 21.37 55.22 46.89 31.56"/><polygon class="cls-3" points="39.43 9.78 46 30.49 21.37 55.22 46.89 31.56 55.93 14.38 59.42 20.06 59.42 20.06 50.2 4.94 39.43 9.78"/><polygon class="cls-4" points="9.46 7.57 39.43 9.78 50.2 4.94 43.21 0.63 36.59 0 9.46 7.57"/></svg>