<svg id="felsen" xmlns="http://www.w3.org/2000/svg" viewBox="0 0 302.65 313.57"><defs><style>.cls-1{fill:#a6a4a5;}.cls-2{fill:#999497;}.cls-3{fill:#c6c6c5;}.cls-4{fill:#969497;}.cls-5{fill:#bfbec0;}.cls-6{fill:#7e7e7e;}.cls-7{fill:#c1c1c1;}.cls-8{fill:#756f6f;}.cls-9{fill:#bfbfbf;}.cls-10{fill:#8f898b;}.cls-11{fill:#c3c3c3;}.cls-12{fill:#767072;}.cls-13{fill:#b9b9b9;}.cls-14{fill:#bfbfc1;}.cls-15{fill:#7b7b7b;}.cls-16{fill:silver;}.cls-17{fill:#acacac;}.cls-18{fill:#b7b7b7;}.cls-19{fill:#746e6e;}.cls-20{fill:#9b9597;}</style></defs><polygon class="cls-1" points="21.84 251.16 0 221.13 8.19 196.56 16.77 196.17 21.06 179.01 51.87 163.02 53.43 109.98 61.62 70.98 86.19 58.11 134.16 0 155.22 0.78 171.6 73.32 177.84 77.22 187.98 120.51 215.28 108.03 256.24 108.81 271.83 149.76 271.83 157.56 281.19 166.92 302.65 272.23 290.17 289 257.01 292.12 258.57 301.09 252.72 305.38 240.24 304.99 218.4 313.57 192.66 300.31 192.66 283.93 158.34 274.56 140.79 268.32 130.65 260.92 116.22 264.04 109.2 259.75 86.19 267.94 62.79 269.11 48.75 258.96 21.84 251.16"/><polygon class="cls-2" points="7.94 222.66 12.98 208.13 51.21 214.36 78.47 227.99 83.51 245.77 86.19 267.94 62.79 269.11 48.75 258.96 21.84 251.16 7.94 222.66"/><polygon class="cls-2" points="49.14 187.98 47.95 174.65 65.44 167.83 66.62 175.54 58.91 188.28 49.14 187.98"/><polygon class="cls-3" points="54.17 163.68 66.62 89.89 88.08 69.61 61.62 70.98 53.43 109.98 51.87 163.02 54.17 163.68"/><polygon class="cls-4" points="98.27 60.89 108.98 63.15 153.33 63.33 153.33 66.34 61.62 70.98 86.19 58.11 98.27 60.89"/><polygon class="cls-5" points="155.4 6.76 135.85 8.08 114.99 25.18 104.66 46.04 88.49 58.26 86.19 58.11 134.16 0 155.22 0.78 155.4 6.76"/><polygon class="cls-6" points="129.09 76.86 145.06 136.63 147.68 120.05 149.39 73.11 144.84 66.75 88.08 69.61 129.09 76.86"/><polygon class="cls-7" points="151.05 66.48 147.68 120.05 149.39 73.11 144.84 66.75 151.05 66.48"/><polygon class="cls-8" points="133.22 192.26 127.92 177.53 129.28 163.13 145.06 136.63 147.69 119.9 155.22 0.78 171.6 73.32 177.84 77.22 187.98 120.51 177.01 125.35 133.22 192.26"/><polygon class="cls-6" points="58.91 188.28 73.07 154.61 76.76 166.29 81.68 165.88 86.19 177.15 87.83 197.02 91.72 176.12 120.41 156.45 133.22 192.26 129.63 207.47 109.75 210.75 81.68 202.56 58.91 188.28"/><polygon class="cls-9" points="83.98 152.75 106.4 152.75 120.41 156.45 91.72 176.12 87.83 197.02 86.19 177.15 81.68 165.88 76.76 166.29 73.07 154.61 83.98 152.75"/><polygon class="cls-10" points="129.28 163.13 127.92 177.53 122.81 163.25 129.28 163.13"/><polygon class="cls-11" points="16.77 196.17 16.24 200.13 51.21 214.36 12.98 208.13 7.94 222.66 21.84 251.16 0 221.13 8.19 196.56 16.77 196.17"/><polygon class="cls-12" points="75.36 205.3 57.38 217.7 54.11 248.63 51.21 214.36 75.36 205.3"/><polygon class="cls-8" points="109.75 210.75 129.63 207.47 128.63 227.47 113.09 238.03 112.86 246.8 109.2 259.75 86.19 267.94 84.44 249.1 78.47 227.99 109.75 210.75"/><polygon class="cls-8" points="113.03 196.14 105.8 175.84 105.09 166.95 115.06 160.11 125.6 177.14 133.22 192.26 129.63 207.47 109.75 210.75 113.03 196.14"/><polygon class="cls-13" points="23.72 184.49 41.19 181.14 56.2 167.73 54.17 163.68 65.44 167.83 50.9 175.14 48.25 185.91 38.55 188.91 23.54 187.85 17.19 194.2 23.72 184.49"/><polygon class="cls-2" points="58.91 188.28 66.62 175.54 67.17 168.66 65.44 167.83 50.9 175.14 48.25 185.91 38.55 188.91 58.91 188.28"/><polygon class="cls-14" points="113.09 238.03 128.09 239.27 136.21 230.97 128.63 227.47 113.09 238.03"/><polygon class="cls-15" points="130.65 260.92 128.09 239.27 136.21 230.97 130.65 260.92"/><polygon class="cls-4" points="159.09 236.46 153.06 215.43 161.16 168.22 174.83 128.7 179.43 152.4 173.8 169.44 185.8 155.65 216.44 160.89 185.99 190.57 159.09 236.46"/><polygon class="cls-16" points="182.52 150.65 216.81 157.71 247.67 120.98 219.22 162.88 197.11 239.32 216.44 160.89 185.8 155.65 173.8 169.44 179.43 152.4 174.83 128.7 177.01 125.35 182.52 150.65"/><polygon class="cls-6" points="256.24 108.81 219.22 162.88 197.11 239.32 208.49 276.01 257.01 292.12 290.17 289 302.65 272.23 281.19 166.92 271.83 157.56 271.83 149.76 256.24 108.81"/><polygon class="cls-8" points="208.49 276.01 201.71 236.88 224.47 170.75 247.2 148.1 267.48 172.21 262 261 290.17 289 302.65 272.23 281.19 166.92 271.83 157.56 271.83 149.76 256.24 108.81 219.22 162.88 197.11 239.32 208.49 276.01"/><polygon class="cls-6" points="219.99 296.62 225.02 291.79 228.84 291.59 232.66 288.57 240.91 284.75 248.15 289.38 256.8 289.18 257.01 292.12 258.57 301.09 252.72 305.38 240.24 304.99 218.4 313.57 219.99 296.62"/><polygon class="cls-17" points="192.66 283.93 201.49 273.89 215.97 262.43 237.69 257.6 242.12 268.46 242.52 278.32 240.91 284.75 232.66 288.57 228.84 291.59 225.02 291.79 219.99 296.62 215.16 295.41 208.93 294.81 192.66 283.93"/><polygon class="cls-18" points="192.66 283.93 208.93 294.81 215.16 295.41 218.4 313.57 219.99 296.62 225.02 291.79 228.84 291.59 232.66 288.57 226.63 289.38 205.91 272.08 223.41 290.18 219.19 294.61 216.97 292.6 209.73 292.4 192.66 283.93"/><polygon class="cls-19" points="240.91 284.75 242.52 278.32 242.12 268.46 257.4 278.32 257.01 292.12 248.2 289.49 240.91 284.75"/><polygon class="cls-20" points="257.4 278.32 237.69 257.6 242.12 268.46 257.4 278.32"/><polygon class="cls-17" points="73.07 154.61 83.98 152.75 106.4 152.75 120.41 156.45 96.27 172.01 82.33 163.69 78.05 163.82 73.07 154.61"/></svg>