<?xml version="1.0" encoding="UTF-8" standalone="no"?><!-- Generator: Gravit.io --><svg xmlns="http://www.w3.org/2000/svg" xmlns:xlink="http://www.w3.org/1999/xlink" style="isolation:isolate" viewBox="9.433 95.47 823.024 380.061" width="823.024pt" height="380.061pt"><g id="Hintergrund"><path d=" M 9.498 475.531 L 832.457 475.531 L 832.457 95.47 L 9.498 95.47 L 9.498 475.531 Z " id="Strecke" fill="rgb(19,26,25)"/><path d=" M 9.497 95.47 L 9.497 475.531 L 263.885 475.531 L 438.207 95.47 L 9.497 95.47 Z " id="Strecke" fill="rgb(27,40,40)"/><path d=" M 826.376 95.47 L 790.631 167.766 L 832.457 168.104 L 832.457 95.47 L 826.376 95.47 Z  M 730.432 371.056 L 798.738 371.056 L 741.918 475.531 L 832.457 475.531 L 832.457 168.104 L 730.432 371.056 Z " id="Zusammengesetzte Strecke" fill="rgb(44,46,53)"/><path d=" M 9.497 95.47 L 9.497 166.076 L 56.93 165.908 L 21.321 95.47 L 9.497 95.47 Z  M 9.433 166.077 L 9.497 166.204 L 9.497 166.076 L 9.433 166.077 Z  M 9.497 475.531 L 94.631 475.531 L 43.216 368.1 L 111.522 368.1 L 9.497 166.204 L 9.497 475.531 Z " id="Zusammengesetzte Strecke" fill="rgb(19,26,25)"/></g></svg>