<?xml version="1.0" encoding="utf-8"?>
<!-- Generator: Adobe Illustrator 25.1.0, SVG Export Plug-In . SVG Version: 6.00 Build 0)  -->
<svg version="1.1" id="Layer_1" xmlns="http://www.w3.org/2000/svg" xmlns:xlink="http://www.w3.org/1999/xlink" x="0px" y="0px"
	 viewBox="0 0 337.1 303" style="enable-background:new 0 0 337.1 303;" xml:space="preserve">
<style type="text/css">
	.st0{fill:#FFFFFF;}
</style>
<path class="st0" d="M325.3,295.3c-0.6-1.2-14.9-32-31.6-68.5l-30.5-66.2l-6.7-3.4c-12.2-6.2-26.5-9-36.9-7.4
	c-15.7,2.5-29.1,12.4-52.5,38.7c-17.1,19.2-26.4,27.2-37.4,31.9c-8.4,3.6-8.6,3.6-21.1,3.6c-13.9,0-19.2-1.3-30.6-7.3l-5.8-3.1
	l-32.2-70C22.3,105,7.8,72.9,7.8,72.2c0-0.9,1.8-0.4,5.7,1.5c13.7,6.7,27.8,9.5,37.9,7.7c15.6-2.8,27.9-11.8,50.7-37.1
	c15.3-17,24.7-25.8,32.3-30.3c15.8-9.3,35-9.8,54.2-1.5c7.2,3.1,7.4,3.2,7.4,1.4c0-1.1,4.6-2.8,8-2.9c0.8,0,131,281.9,131,283.5
	c0,0.4-1.2,0.9-2.6,1.2c-1.4,0.3-3.4,0.8-4.4,1.1C327,297.3,326,296.8,325.3,295.3L325.3,295.3z M123.8,220.8c3-1,8.7-3.8,12.6-6.2
	l7.1-4.4l-1.8-4c-1-2.2-3.9-8.3-6.3-13.7l-4.5-9.7l-6.5,4.2c-6.5,4.2-16.1,8-20.2,8c-1.2,0-2.1,0.5-2.1,1.1s2.5,6.8,5.7,13.7
	C114,224.2,113.8,224.1,123.8,220.8L123.8,220.8z M100.9,195.6c0-0.3-2.7-6.3-6-13.5c-3.3-7.1-6-13.3-6-13.6c0-0.4,2.8-1.4,6.3-2.2
	c6.7-1.7,11.4-3.8,17.9-8.2c2.2-1.5,4.2-2.7,4.5-2.7c0.3,0,3.1,5.6,6.3,12.5c3.2,6.9,6.2,13,6.8,13.5c1.2,1.1,7-4.2,17.5-15.9
	c3.6-4,6.7-7.3,6.8-7.3c0.1,0,2.9,5.7,6.1,12.8c3.2,7,6.2,12.8,6.7,12.8c0.5,0,3.2-2.7,6.1-5.9c2.9-3.3,8.1-8.5,11.6-11.7l6.4-5.8
	l-5.3-11.7c-2.9-6.4-5.7-12.5-6.1-13.5c-0.7-1.6-1.3-1.4-5.7,2.4c-2.7,2.3-8.2,7.7-12.1,12c-3.9,4.3-7.3,7.8-7.5,7.8
	c-0.2,0-3.2-6.2-6.6-13.8c-3.4-7.6-6.4-13.6-6.5-13.5c-0.2,0.2-4.2,4.5-9,9.8c-4.8,5.2-10.2,10.6-12,12.1l-3.2,2.6l-5.8-13
	c-3.2-7.2-6.2-13.4-6.7-13.9c-0.5-0.5-3,0.7-5.7,2.6c-5.3,3.8-14.8,7.9-20.3,8.8c-2,0.3-3.6,0.9-3.6,1.2c0,0.4,2.7,6.5,6,13.6
	s6,13.2,6,13.5c0,1-10.8,0.4-16.7-0.9c-3.4-0.8-9.7-2.9-13.9-4.7c-4.2-1.8-7.7-3.2-7.7-3c0,0.2,2.8,6.4,6.3,14l6.3,13.7l8.2,3.5
	c4.5,1.9,10.9,4.2,14.2,4.9C90.3,195.9,100.9,196.6,100.9,195.6L100.9,195.6z M254.1,143.4c-3.1-6.7-6.2-12.8-6.8-13.4
	c-1.8-1.9-10.4-5.4-18.7-7.6c-8.5-2.3-19.9-2.8-19-0.8c0.3,0.7,3.1,6.8,6.3,13.7l5.8,12.5h6.8c7.4,0,17.7,2.5,25.6,6.1
	c2.7,1.2,5.1,2.1,5.2,2C259.5,155.7,257.2,150.1,254.1,143.4L254.1,143.4z M74.1,139c0.3-0.7-2.1-6.9-5.4-14
	c-3.3-7-5.7-13.1-5.4-13.5c0.3-0.4,1.2-0.7,2-0.7c3.6,0,14.1-4.2,20.2-8.1c6.5-4.2,6.6-4.2,7.6-2.1c4,9.1,11.5,24.9,11.9,25.3
	c0.6,0.6,8.4-6.9,16.9-16.3c3.6-4,7-7.1,7.4-6.9c0.4,0.2,3.4,6.2,6.6,13.3c3.2,7.1,6.1,12.7,6.6,12.6c0.4-0.2,4.8-3.5,9.6-9.7
	s10.1-10.5,11.6-11.7l2.8-2.3l1,2.3c0.6,1.2,3.3,7.4,6.1,13.6c2.8,6.2,5.3,11.5,5.5,11.7c0.2,0.2,2.8-1.2,5.7-3.2
	c5.6-3.7,15.6-8,18.7-8c5.3,0,5.2-1.2-1.3-15.3c-3.5-7.5-6.4-13.7-6.5-13.8c-0.1-0.1-2.7,0.4-5.6,1c-6.7,1.5-12.9,4.2-18.4,8.1
	c-2.3,1.6-4.6,2.9-4.9,2.9c-0.4,0-3.3-5.9-6.6-13c-3.3-7.2-6.1-13.2-6.3-13.4c-0.7-0.8-10.3,7.9-17,15.3c-3.6,4-7,7.3-7.4,7.3
	c-0.4,0-3.4-5.8-6.6-12.8c-3.2-7.1-6.1-13-6.5-13.2c-0.4-0.2-4.2,3.6-8.5,8.3c-7.8,8.7-15.3,15.5-16,14.8c-0.2-0.2-3-6.2-6.2-13.2
	c-3.2-7-6-12.9-6.1-13.1c-0.2-0.2-2.9,1.4-6.1,3.4c-7.5,4.8-10,5.9-17.5,7.7l-6.2,1.5l5.9,12.7c3.3,7,5.9,13.3,5.9,14.1
	c0,1.1-1.4,1.2-7.2,0.7c-8.1-0.7-15.8-2.8-24.3-6.5c-3.1-1.4-5.7-2.1-5.7-1.7c0,2.7,11.4,25.6,13.6,27.3
	C45.1,135.9,72.6,142.5,74.1,139L74.1,139z M228.2,87.1l-6.3-13.6l-6.8-3.1c-11.2-5.1-31-8.7-31-5.6c0,0.7,2.7,7,5.9,14l5.9,12.7
	l7.2,0.6c8.9,0.8,17,2.9,24.8,6.4c3.3,1.5,6.2,2.6,6.3,2.5C234.3,100.9,231.6,94.6,228.2,87.1L228.2,87.1z M167.5,68.4
	c2.2-0.9,5.9-2.2,8.3-2.9c2.4-0.6,5-1.3,5.7-1.5c0.9-0.2-0.7-4.7-4.7-13.4c-3.3-7.2-6.5-13.5-7-13.9c-2.2-2-15.8,3-26,9.6l-3.3,2.1
	l-6-13c-3.3-7.1-6.5-13.1-7.2-13.3c-1.1-0.3-18.6,17.2-22,22c-1.5,2-1.1,3.2,4.3,15.1c3.2,7.1,6.2,13,6.5,13.2
	c0.3,0.2,4.3-3.7,8.8-8.6c8.3-9,15-15.3,15.7-14.5c0.3,0.3,8.3,17.5,11.8,25.3c1,2.1,1,2.1,6.1-1.2
	C161.3,71.6,165.4,69.3,167.5,68.4L167.5,68.4z M208.2,44.2c0-0.3-2.5-5.9-5.5-12.5c-6.3-13.7-7.5-14.9-19.3-19.2
	c-7.4-2.7-23.7-5.7-25-4.6c-0.3,0.3,2.2,6.7,5.7,14.4l6.3,13.9l6.6,0c6.9,0,21.9,3.9,26.9,6.9C206.4,44.6,208.2,45.1,208.2,44.2
	L208.2,44.2z"/>
</svg>
