<svg id="Mosquito" xmlns="http://www.w3.org/2000/svg" viewBox="0 0 176.06 113.48"><defs><style>.cls-1{fill:#2f1b0b;}.cls-2{fill:#d9d9d9;}.cls-3{fill:#5a3510;}</style></defs><path class="cls-1" d="M290.61,185s-8.88,14.76-19.44,20.33c-8.78,4.64-27.56,8.78-27.56,8.78s19.67-5.67,27.78-9.78c5.41-2.74,17-17.7,16.11-18.11-12.87-5.74-8.22-.44-8.22-.44s-4.67,9.78-13.34,15.44-18.53,9.34-25.1,9.34c0,0,13.77-3.12,24.33-10.45s12.57-15.22,12.57-15.22l-9.24,2.42a2,2,0,0,1-1.81,2.25c-2.08.22-16.63.44-16.63.44s-30.67,45.67-62,49.78c0,0,31.78-3.34,57.85-51.68,0,0,19-.1,20.78-1.77s-3-.77-3-.77a6.27,6.27,0,0,1-3.51,2.54c-2,.34-22.48-.79-22.48-.79S220.61,227.89,195.39,237c0,0,25.78-9.22,39.11-51.78,0,0,25.89,1.78,27.67-1.55s-.58,2.11-2,2.22-16.38-1-24.27-11.45c0,0-26.11,56.78-77.44,47.78,0,0,40.78,11.46,75.89-48.83,0,0,18.65,11.94,25.82,8.5S290.61,185,290.61,185Z" transform="translate(-158.5 -126.29)"/><path class="cls-2" d="M274.83,162.67s-1.22-15.67,1.89-20.78,18-22.56,20.78-12.56-16.11,22.56-19.11,26.34A17.25,17.25,0,0,0,274.83,162.67Z" transform="translate(-158.5 -126.29)"/><path class="cls-3" d="M287.61,174.22s-6.55-18.66-15.11-18.66-15.89,15.63-10.89,27.09,23.89,1.68,24.22-.87a51.71,51.71,0,0,1,2.23-7.67Z" transform="translate(-158.5 -126.29)"/><path class="cls-3" d="M334.5,194.71s2.11-10.27-19.78-11c-24.7-.88-21.22-.78-21.22-.78l-2.11,2.67s19.87-.42,28.33.11c16,1,14,9,14,9Z" transform="translate(-158.5 -126.29)"/><path class="cls-2" d="M270.72,167.67s-14.78-18.78-28.22-19.78-19.89-.11-21,2.44,6.56,13,17.11,13S268.72,163.56,270.72,167.67Z" transform="translate(-158.5 -126.29)"/><path class="cls-1" d="M295.94,181.56s-3.55-9.78-6.22-9.45-8.65,3-10.42,12.78C278.61,188.68,295.17,188.33,295.94,181.56Z" transform="translate(-158.5 -126.29)"/><path class="cls-1" d="M262.67,166.89S258,163,239.78,168.45s-23,8.44-22.22,10,17.78,2.59,24.66,2.11,20-.23,24.67-2.78S262.67,166.89,262.67,166.89Z" transform="translate(-158.5 -126.29)"/><path class="cls-3" d="M242.4,167.75c2.72-.74,5.1-1.25,7.18-1.6,0,0,3.77,10.92,2.78,14-2.47.11-4.9.19-7,.28C245.65,177.56,246.11,170.08,242.4,167.75Z" transform="translate(-158.5 -126.29)"/><path class="cls-3" d="M255.13,165.56c5.86-.2,7.7,1.33,7.7,1.33s8.89,8.33,4.23,10.89c-1.76,1-4.7,1.52-8.05,1.87C259.17,176.41,259.33,166.49,255.13,165.56Z" transform="translate(-158.5 -126.29)"/><path class="cls-3" d="M230.41,171.48c1.56-.54,3.28-1.1,5.2-1.71,0,0,4.21.81,3.61,10.9-2.07,0-4.49,0-6.95-.14C232.5,178.15,232.82,172.13,230.41,171.48Z" transform="translate(-158.5 -126.29)"/><path class="cls-3" d="M225.2,173.39c.73.67,2.3,2.61,1.91,6.82-4.92-.39-9-1-9.38-1.77C217.23,177.45,219,175.85,225.2,173.39Z" transform="translate(-158.5 -126.29)"/></svg>