<svg id="Baumstamm" xmlns="http://www.w3.org/2000/svg" viewBox="0 0 149.06 82.57"><defs><style>.cls-1{fill:#b57335;}.cls-2{fill:#935007;}</style></defs><path class="cls-1" d="M1118.16,353.8s98.8,14.17,120.22,25c0,0,13.53,8,13.65,10.4s-9.14,37.47-10.49,38.86-20.5,8.43-21.48,8.2S1107.93,394.61,1106,394.4C1096.93,393.46,1110.85,351.58,1118.16,353.8Z" transform="translate(-1102.97 -353.72)"/><path class="cls-2" d="M1238.69,379c-21.42-10.86-120.53-25.21-120.53-25.21-1.37-.42-3.25,1-5,3.42l61.8,14L1110.27,362a54.37,54.37,0,0,0-2.8,6.45l-.68-.12,48.87,8.4,40.88,5.06,21.66,10.25-23-4.92-40.33-2.66-48.78-12.06a31.89,31.89,0,0,0-1.47,5.06l20.79,12.25-22.17-5.06c-.78,5.57.14,9.44,2.71,9.71,1.84.19,99.84,36.67,114.11,41.88-3.35-5-4.31-9.59-2.87-13.12,2.42-5.94,9.86-41,13-41.33,2.21-.2,15.94,4.93,21.45,6.56C1249.27,385.31,1238.69,379,1238.69,379Zm-57.53,38.57L1141,401.5l-26.1-9.42,26.49,3.82L1177,410.44,1211.85,421l1.79,6.93Zm34.66-17.91-1.62,13.16-15.53-8.6-42.8-7.08-41-18.64,41.64,13.57,44.44,2Zm4.32-15.17-23.94-7.34-36.38-4.32,1.6-.31h34.26a4.46,4.46,0,0,1,1,.12l28.46,8.1Z" transform="translate(-1102.97 -353.72)"/><polygon class="cls-2" points="120.24 76.48 119.76 65.38 130.87 35.68 141.25 38.12 138.01 69.47 133.85 70.18 125.57 69.44 125.57 63.89 132.9 45.95 129.37 62.07 136.74 66.13 138.45 39.86 131.33 39.56 122.03 65.92 120.24 76.48"/></svg>