<svg id="Loch" xmlns="http://www.w3.org/2000/svg" xmlns:xlink="http://www.w3.org/1999/xlink" viewBox="0 0 463.65 82.87"><defs><style>.cls-1{fill:#29235c;}.cls-2{fill:url(#linear-gradient);}</style><linearGradient id="linear-gradient" x1="314.29" y1="381.13" x2="314.29" y2="436.44" gradientUnits="userSpaceOnUse"><stop offset="0" stop-color="#a2195b"/><stop offset="0.36" stop-color="#941b80"/><stop offset="0.39" stop-color="#8b1d80"/><stop offset="0.46" stop-color="#7a2081"/><stop offset="0.54" stop-color="#6f2282"/><stop offset="0.67" stop-color="#682482"/><stop offset="1" stop-color="#662482"/></linearGradient></defs><path class="cls-1" d="M537.7,438.81s-25.61,9.47-45.61,10.19-61.17,7.62-87.92,9.14S333.87,464,299.42,464,205,456.4,177.87,445.45c-25.22-10.18-50.67-10.62-62.45-15.22S93.55,423.54,86,419.71s-2-17.77,7.2-21.2c8.16-3.05,14.44-5.49,28.22-5.8s37.13-2.61,50.91-6.25,44.11-2.74,50.34-3.43,29.23,1.24,34.33-.29,27.47-.86,36-1.18,32.6-.82,43.55.13,33.09,3.06,36.87,2.87,57.67.38,72.72,3.44,40.39,11.27,47.06,13.18,32.67,5,36.67,5.35S558.88,421.59,537.7,438.81Z" transform="translate(-82.46 -381.13)"/><path class="cls-2" d="M86,419.71a58.92,58.92,0,0,0,6.23,2.65c.32-.15.64-.29,1-.41,8.16-3.05,14.44-5.49,28.22-5.8s37.14-2.61,50.91-6.24,44.11-2.75,50.34-3.44,29.23,1.24,34.33-.29,27.47-.86,36-1.18,32.6-.82,43.55.13,33.09,3.06,36.87,2.87,57.67.38,72.72,3.44,40.39,11.27,47.06,13.18,32.67,5,36.67,5.35c1.58.15,6.47,2.55,10.48,6.47,16.26-16.18-6.67-29.54-10.48-29.91-4-.38-30-3.44-36.67-5.35s-32-10.13-47.06-13.18-68.94-3.63-72.72-3.44-25.91-1.91-36.87-2.87-35-.46-43.55-.13-30.9-.36-36,1.18-28.11-.41-34.33.29-36.56-.2-50.34,3.43-37.13,5.93-50.91,6.25-20.06,2.75-28.22,5.8C84,401.94,78.44,415.89,86,419.71Z" transform="translate(-82.46 -381.13)"/></svg>